<?xml version="1.0" encoding="UTF-8"?>
<svg version="1.1" xmlns="http://www.w3.org/2000/svg" width="512" height="512">
<path d="M0 0 C0.66 0 1.32 0 2 0 C3.29205453 2.21889649 4.55745143 4.44775483 5.8125 6.6875 C6.16892578 7.29400391 6.52535156 7.90050781 6.89257812 8.52539062 C13.37527518 20.24182476 13.42890764 32.90883389 13.34057617 45.9074707 C13.33972814 47.67291245 13.34020846 49.43835525 13.34190369 51.20379639 C13.34275821 55.9571019 13.32522121 60.7101765 13.30418181 65.46342874 C13.28532369 70.44551157 13.28365741 75.42760073 13.28010559 80.40971375 C13.27081181 89.82643711 13.24623442 99.24305497 13.21605712 108.65973204 C13.18242971 119.38774678 13.1660062 130.11576678 13.15097082 140.84382117 C13.11968228 162.89593948 13.06697409 184.94796307 13 207 C9.63523477 205.87841159 9.33159373 205.37254354 7.4375 202.5625 C-12.57099295 174.99524305 -47.86181933 164.23571718 -80 159 C-100.96238533 155.9138192 -121.83655542 154.77243608 -143 155 C-142.21165771 155.20044922 -141.42331543 155.40089844 -140.61108398 155.60742188 C-73.76849696 172.71695152 -73.76849696 172.71695152 -59.875 190.625 C-57.10951115 195.60287993 -56.62282273 198.2301682 -57.8125 203.8125 C-63.34290247 216.71677242 -79.78580695 223.01436893 -91.9924469 227.94241333 C-100.73055538 231.37140219 -109.62868074 234.18315796 -118.65234375 236.75390625 C-119.85573395 237.09700333 -121.05912415 237.4401004 -122.29898071 237.79359436 C-138.43591121 242.32547076 -154.76265037 246.09219098 -171.07666016 249.92456055 C-196.50229145 255.90522058 -221.55293197 262.81493181 -246.25 271.375 C-247.22419891 271.71183807 -247.22419891 271.71183807 -248.21807861 272.05548096 C-283.48918346 284.29810721 -319.02152543 300.06620752 -348 324 C-348.81887695 324.66878174 -348.81887695 324.66878174 -349.65429688 325.35107422 C-367.15487298 339.66927179 -381.1427657 355.54102729 -391 376 C-391.99 376 -392.98 376 -394 376 C-402.271106 366.0785109 -406.17145567 353.92445693 -406.12025452 341.18559265 C-406.12110894 340.40544558 -406.12196337 339.62529851 -406.12284368 338.82151061 C-406.12448883 336.21130587 -406.11899291 333.60116561 -406.11352539 330.9909668 C-406.11324328 329.11833192 -406.11340171 327.24569694 -406.1139679 325.37306213 C-406.11425496 320.29086599 -406.10837292 315.20869342 -406.10139394 310.12650275 C-406.09514526 304.81470849 -406.0945554 299.5029137 -406.09336853 294.19111633 C-406.09025969 284.13314292 -406.08205231 274.07518037 -406.07201904 264.01721174 C-406.06084404 252.56628731 -406.05534395 241.11536236 -406.05032361 229.66443384 C-406.03986934 206.10961653 -406.02227853 182.55480888 -406 159 C-405.34 159 -404.68 159 -404 159 C-402.91306077 160.75235078 -401.90705729 162.5550745 -400.9375 164.375 C-386.90242825 188.9291707 -359.62501298 201.53716479 -333.33154297 208.72998047 C-319.73810578 212.25873979 -305.95605144 214.5011987 -292 216 C-291.09443359 216.09788818 -290.18886719 216.19577637 -289.25585938 216.29663086 C-280.75151574 217.11385861 -272.28191528 217.11506818 -263.75 217.0625 C-262.31119949 217.05746923 -260.87239726 217.05290914 -259.43359375 217.04882812 C-255.95569249 217.03796064 -252.47785783 217.02078528 -249 217 C-249.57105469 216.86013672 -250.14210937 216.72027344 -250.73046875 216.57617188 C-316.51349817 200.31343567 -316.51349817 200.31343567 -330.125 180.9375 C-332.19596853 177.16406268 -332.70725658 174.32212354 -332 170 C-326.47429021 157.10667716 -312.46385963 150.9120126 -300.17919922 145.83398438 C-297.13320002 144.6398684 -294.07386748 143.49536577 -291 142.375 C-290.08420166 142.03936035 -289.16840332 141.7037207 -288.22485352 141.35791016 C-268.28157321 134.35962268 -247.61408081 129.61179344 -227.06952667 124.76062012 C-201.43298404 118.70453783 -175.97549478 112.44013202 -151 104 C-149.76975098 103.59120605 -148.53950195 103.18241211 -147.27197266 102.76123047 C-92.32504278 84.38741919 -30.09863632 55.46666251 -1.33984375 2.09765625 C-0.67662109 1.05931641 -0.67662109 1.05931641 0 0 Z " fill="#0093DD" transform="translate(452,68)"/>
<path d="M0 0 C0.66 0 1.32 0 2 0 C2.0697813 10.87533345 2.12295337 21.75061285 2.15543652 32.62612534 C2.17103372 37.67710071 2.19216233 42.72792192 2.22631836 47.77880859 C2.25912517 52.66122179 2.27689763 57.54348751 2.28463173 62.4260025 C2.29013721 64.28055388 2.30088712 66.13509799 2.31719017 67.98958588 C2.47820242 87.07938009 -0.54925241 104.38595634 -14.34765625 118.6796875 C-21.73337788 125.14083426 -30.32083727 130.84479876 -40 133 C-40.74857726 133.17125513 -41.49715451 133.34251026 -42.26841593 133.51895493 C-45.12755148 134.02246243 -47.76796792 134.12893168 -50.6701889 134.13422108 C-51.80771402 134.13867892 -52.94523913 134.14313676 -54.11723471 134.14772969 C-55.36225209 134.14754533 -56.60726947 134.14736097 -57.89001465 134.14717102 C-59.22975092 134.15047205 -60.5694862 134.15419812 -61.90922022 134.1583125 C-65.58974008 134.16831358 -69.27024363 134.17204625 -72.95077515 134.17470181 C-76.92098684 134.17861052 -80.89118569 134.1881885 -84.86138916 134.19691467 C-94.44936329 134.21666373 -104.03733845 134.2267436 -113.62532783 134.23564246 C-118.14339246 134.24002817 -122.66145594 134.24539427 -127.17951965 134.25063133 C-142.20383206 134.26764253 -157.22814374 134.28213573 -172.25246429 134.28938007 C-176.15008037 134.29128989 -180.04769644 134.29321023 -183.9453125 134.29516602 C-184.91401537 134.29564976 -185.88271824 134.2961335 -186.88077575 134.2966319 C-202.56597179 134.30492859 -218.25109148 134.33025989 -233.9362542 134.36274669 C-250.04932362 134.39584695 -266.16235427 134.41383154 -282.27545786 134.41702431 C-291.31850832 134.41918673 -300.36144746 134.42789598 -309.40446472 134.45348549 C-317.1074802 134.47523309 -324.81035732 134.48322301 -332.51340002 134.47351871 C-336.44012017 134.46898565 -340.36655508 134.47080181 -344.29323578 134.49028015 C-347.89603507 134.50799665 -351.49834282 134.50684636 -355.10114795 134.49138286 C-357.00506039 134.48790965 -358.9089785 134.50396959 -360.81281805 134.52098733 C-369.13583851 134.45933355 -376.18741959 132.84603358 -384 130 C-384 126 -384 126 -382.375 123.84375 C-324.48583017 66.71627978 -230.9084592 58.68951037 -154.12890625 51.72265625 C-152.94450455 51.6148584 -151.76010284 51.50706055 -150.53981018 51.39599609 C-144.7774853 50.873719 -139.01456666 50.36288594 -133.24926758 49.87451172 C-90.00221946 46.1272721 -34.6084337 39.89042309 -3.75 5.5 C-2.23875311 3.67453346 -1.05917455 2.1183491 0 0 Z " fill="#EB8A15" transform="translate(463,330)"/>
<path d="M0 0 C1.35077123 -0.00462117 2.70153742 -0.01098217 4.0522933 -0.01890898 C7.72627838 -0.035459 11.39984275 -0.02742221 15.07382846 -0.0149641 C19.05073684 -0.00585652 23.02757644 -0.01991143 27.00447083 -0.03088379 C34.7802696 -0.0486131 42.55591339 -0.04485406 50.33171809 -0.03323323 C56.65472658 -0.02417708 62.97769183 -0.02298431 69.30070496 -0.02732849 C70.20273331 -0.02794142 71.10476167 -0.02855436 72.03412423 -0.02918586 C73.86692879 -0.03046484 75.69973334 -0.0317617 77.53253788 -0.03307623 C94.69401721 -0.04446565 111.85541088 -0.03139406 129.01687616 -0.00987476 C143.72259735 0.00799473 158.42819222 0.00489016 173.13391113 -0.0135498 C190.23655287 -0.0349855 207.33911965 -0.04336717 224.44177294 -0.03110075 C226.26760386 -0.02982664 228.0934348 -0.02856915 229.91926575 -0.02732849 C230.81746571 -0.02671139 231.71566567 -0.02609429 232.64108381 -0.02545848 C238.95199968 -0.02201367 245.26286777 -0.02781514 251.57377625 -0.0372467 C259.2711316 -0.04849811 266.96832392 -0.04536089 274.66566074 -0.02412373 C278.58836894 -0.01365538 282.51080591 -0.00941885 286.43351173 -0.02272034 C290.03231779 -0.0347384 293.6306041 -0.02792917 297.22936374 -0.00681013 C299.13088567 -0.00030477 301.03244439 -0.01319552 302.93392706 -0.02703905 C311.76485057 0.05258091 320.13533466 1.52060923 328.10998535 5.50793457 C327.24443166 12.3087136 319.34840933 16.97576715 314.24719238 20.96447754 C257.34309826 64.16018261 179.57600563 73.72079316 110.30529785 79.97668457 C109.60587381 80.04006516 108.90644978 80.10344574 108.18583107 80.16874695 C101.14521773 80.8058793 94.10400556 81.43278995 87.05915451 82.02136803 C72.58944446 83.23583237 58.25099687 84.76725998 43.90686035 87.01574707 C42.61188126 87.21837158 41.31690216 87.42099609 39.98268127 87.62976074 C8.22537898 92.79008161 -31.04228594 102.58845341 -52.03845215 129.23449707 C-54.16295603 132.24348829 -56.24101572 135.20993671 -57.89001465 138.50793457 C-58.55001465 138.50793457 -59.21001465 138.50793457 -59.89001465 138.50793457 C-59.98317593 127.16290757 -60.05401194 115.81797334 -60.09726334 104.47264004 C-60.11803412 99.20309766 -60.14615715 93.93381924 -60.19177246 88.66442871 C-60.23560831 83.5680238 -60.25923052 78.47187089 -60.26952362 73.37529182 C-60.27684787 71.44226178 -60.29114791 69.50924369 -60.31293488 67.57632256 C-60.52530614 47.93271672 -57.65387103 30.7784074 -43.56188965 15.92980957 C-30.90364602 4.45596301 -17.02009292 -0.12391292 0 0 Z " fill="#55B509" transform="translate(105.8900146484375,46.4920654296875)"/>
<path d="M0 0 C107.91 0 215.82 0 327 0 C327 0.33 327 0.66 327 1 C219.09 1 111.18 1 0 1 C0 0.67 0 0.34 0 0 Z " fill="#F6FD17" transform="translate(92,45)"/>
<path d="M0 0 C107.58 0 215.16 0 326 0 C326 0.33 326 0.66 326 1 C218.42 1 110.84 1 0 1 C0 0.67 0 0.34 0 0 Z " fill="#FE9917" transform="translate(92,465)"/>
<path d="M0 0 C0.33 0 0.66 0 1 0 C1 62.7 1 125.4 1 190 C0.67 190 0.34 190 0 190 C0 127.3 0 64.6 0 0 Z " fill="#0094DE" transform="translate(44,227)"/>
<path d="M0 0 C0.33 0 0.66 0 1 0 C1 59.07 1 118.14 1 179 C0.67 179 0.34 179 0 179 C0 119.93 0 60.86 0 0 Z " fill="#0096E1" transform="translate(466,96)"/>
<path d="M0 0 C0.33 0 0.66 0 1 0 C1 29.04 1 58.08 1 88 C0.67 88 0.34 88 0 88 C0 58.96 0 29.92 0 0 Z " fill="#71C133" transform="translate(44,96)"/>
<path d="M0 0 C0.33 0 0.66 0 1 0 C1 27.72 1 55.44 1 84 C0.67 84 0.34 84 0 84 C0 56.28 0 28.56 0 0 Z " fill="#F39728" transform="translate(466,331)"/>
<path d="M0 0 C0 0.33 0 0.66 0 1 C-8.91 1 -17.82 1 -27 1 C-27 0.67 -27 0.34 -27 0 C-24.0003508 -0.19654959 -21.00064899 -0.38246106 -18 -0.5625 C-17.16082031 -0.61857422 -16.32164062 -0.67464844 -15.45703125 -0.73242188 C-10.14062774 -1.0415151 -5.26352696 -0.82242609 0 0 Z " fill="#05A8E8" transform="translate(199,284)"/>
<path d="M0 0 C4.29 0 8.58 0 13 0 C12.67 0.99 12.34 1.98 12 3 C7.97007218 2.44687265 3.97977076 1.8441938 0 1 C0 0.67 0 0.34 0 0 Z " fill="#02A3EB" transform="translate(313,223)"/>
<path d="M0 0 C0.66 0 1.32 0 2 0 C0.55746343 3.36591866 -1.33264727 5.51047079 -4 8 C-4.66 7.67 -5.32 7.34 -6 7 C-5.04882866 5.8274869 -4.08882991 4.66212985 -3.125 3.5 C-2.59132812 2.8503125 -2.05765625 2.200625 -1.5078125 1.53125 C-0.76144531 0.77328125 -0.76144531 0.77328125 0 0 Z " fill="#7FB551" transform="translate(65,60)"/>
<path d="M0 0 C5.94 0 11.88 0 18 0 C18 0.33 18 0.66 18 1 C12.06 1 6.12 1 0 1 C0 0.67 0 0.34 0 0 Z " fill="#078FD0" transform="translate(327,224)"/>
<path d="M0 0 C3.96 0 7.92 0 12 0 C12 0.33 12 0.66 12 1 C8.04 1 4.08 1 0 1 C0 0.67 0 0.34 0 0 Z " fill="#D79934" transform="translate(315,379)"/>
<path d="M0 0 C3.96 0 7.92 0 12 0 C12 0.33 12 0.66 12 1 C8.04 1 4.08 1 0 1 C0 0.67 0 0.34 0 0 Z " fill="#D9A93E" transform="translate(327,378)"/>
<path d="M0 0 C3.96 0 7.92 0 12 0 C12 0.33 12 0.66 12 1 C8.04 1 4.08 1 0 1 C0 0.67 0 0.34 0 0 Z " fill="#08A7EB" transform="translate(160,283)"/>
<path d="M0 0 C3.96 0 7.92 0 12 0 C12 0.33 12 0.66 12 1 C8.04 1 4.08 1 0 1 C0 0.67 0 0.34 0 0 Z " fill="#0694D3" transform="translate(345,225)"/>
<path d="M0 0 C3.63 0 7.26 0 11 0 C11 0.33 11 0.66 11 1 C7.37 1 3.74 1 0 1 C0 0.67 0 0.34 0 0 Z " fill="#E1973E" transform="translate(304,380)"/>
<path d="M0 0 C0 3 0 3 -1.5 4.6875 C-1.995 5.120625 -2.49 5.55375 -3 6 C-3.66 5.67 -4.32 5.34 -5 5 C-3.35 3.35 -1.7 1.7 0 0 Z " fill="#F18050" transform="translate(457,335)"/>
<path d="M0 0 C3.63 0 7.26 0 11 0 C11 0.33 11 0.66 11 1 C7.37 1 3.74 1 0 1 C0 0.67 0 0.34 0 0 Z " fill="#67BA28" transform="translate(167,131)"/>
<path d="M0 0 C3.63 0 7.26 0 11 0 C11 0.33 11 0.66 11 1 C7.37 1 3.74 1 0 1 C0 0.67 0 0.34 0 0 Z " fill="#59B329" transform="translate(178,130)"/>
<path d="M0 0 C3.63 0 7.26 0 11 0 C11 0.33 11 0.66 11 1 C7.37 1 3.74 1 0 1 C0 0.67 0 0.34 0 0 Z " fill="#5FB22C" transform="translate(189,129)"/>
<path d="M0 0 C3.63 0 7.26 0 11 0 C11 0.33 11 0.66 11 1 C7.37 1 3.74 1 0 1 C0 0.67 0 0.34 0 0 Z " fill="#5DB523" transform="translate(200,128)"/>
<path d="M0 0 C3.3 0 6.6 0 10 0 C10 0.33 10 0.66 10 1 C6.7 1 3.4 1 0 1 C0 0.67 0 0.34 0 0 Z " fill="#D5A33D" transform="translate(284,382)"/>
<path d="M0 0 C3.3 0 6.6 0 10 0 C10 0.33 10 0.66 10 1 C6.7 1 3.4 1 0 1 C0 0.67 0 0.34 0 0 Z " fill="#E7A348" transform="translate(294,381)"/>
<path d="M0 0 C-3.13498292 1.85776765 -5.37471432 2.20140476 -9 2 C-5.86501708 0.14223235 -3.62528568 -0.20140476 0 0 Z " fill="#06ACE3" transform="translate(215,194)"/>
<path d="M0 0 C3.3 0 6.6 0 10 0 C10 0.33 10 0.66 10 1 C6.7 1 3.4 1 0 1 C0 0.67 0 0.34 0 0 Z " fill="#60B921" transform="translate(212,127)"/>
<path d="M0 0 C3.3 0 6.6 0 10 0 C10 0.33 10 0.66 10 1 C6.7 1 3.4 1 0 1 C0 0.67 0 0.34 0 0 Z " fill="#5DB72D" transform="translate(222,126)"/>
<path d="M0 0 C2.97 0 5.94 0 9 0 C9 0.33 9 0.66 9 1 C6.03 1 3.06 1 0 1 C0 0.67 0 0.34 0 0 Z " fill="#E29F36" transform="translate(275,383)"/>
<path d="M0 0 C2.97 0 5.94 0 9 0 C9 0.33 9 0.66 9 1 C6.03 1 3.06 1 0 1 C0 0.67 0 0.34 0 0 Z " fill="#E6AC50" transform="translate(339,377)"/>
<path d="M0 0 C2.97 0 5.94 0 9 0 C9 0.33 9 0.66 9 1 C6.03 1 3.06 1 0 1 C0 0.67 0 0.34 0 0 Z " fill="#64B232" transform="translate(232,125)"/>
<path d="M0 0 C2.64 0 5.28 0 8 0 C8 0.33 8 0.66 8 1 C5.36 1 2.72 1 0 1 C0 0.67 0 0.34 0 0 Z " fill="#DEAC3E" transform="translate(251,386)"/>
<path d="M0 0 C2.64 0 5.28 0 8 0 C8 0.33 8 0.66 8 1 C5.36 1 2.72 1 0 1 C0 0.67 0 0.34 0 0 Z " fill="#EC9941" transform="translate(259,385)"/>
<path d="M0 0 C2.64 0 5.28 0 8 0 C8 0.33 8 0.66 8 1 C5.36 1 2.72 1 0 1 C0 0.67 0 0.34 0 0 Z " fill="#E29037" transform="translate(267,384)"/>
<path d="M0 0 C2.64 0 5.28 0 8 0 C8 0.33 8 0.66 8 1 C5.36 1 2.72 1 0 1 C0 0.67 0 0.34 0 0 Z " fill="#E19F49" transform="translate(348,376)"/>
<path d="M0 0 C2.64 0 5.28 0 8 0 C8 0.33 8 0.66 8 1 C5.36 1 2.72 1 0 1 C0 0.67 0 0.34 0 0 Z " fill="#06A3E3" transform="translate(152,282)"/>
<path d="M0 0 C2.64 0 5.28 0 8 0 C8 0.33 8 0.66 8 1 C5.36 1 2.72 1 0 1 C0 0.67 0 0.34 0 0 Z " fill="#0599DF" transform="translate(357,226)"/>
<path d="M0 0 C2.64 0 5.28 0 8 0 C8 0.33 8 0.66 8 1 C5.36 1 2.72 1 0 1 C0 0.67 0 0.34 0 0 Z " fill="#68B92B" transform="translate(159,132)"/>
<path d="M0 0 C2.64 0 5.28 0 8 0 C8 0.33 8 0.66 8 1 C5.36 1 2.72 1 0 1 C0 0.67 0 0.34 0 0 Z " fill="#67B72A" transform="translate(241,124)"/>
<path d="M0 0 C2.64 0 5.28 0 8 0 C8 0.33 8 0.66 8 1 C5.36 1 2.72 1 0 1 C0 0.67 0 0.34 0 0 Z " fill="#5FBA21" transform="translate(249,123)"/>
<path d="M0 0 C2.31 0 4.62 0 7 0 C7 0.33 7 0.66 7 1 C4.69 1 2.38 1 0 1 C0 0.67 0 0.34 0 0 Z " fill="#DEA437" transform="translate(244,387)"/>
<path d="M0 0 C2.31 0 4.62 0 7 0 C7 0.33 7 0.66 7 1 C4.69 1 2.38 1 0 1 C0 0.67 0 0.34 0 0 Z " fill="#D7993E" transform="translate(356,375)"/>
<path d="M0 0 C2.31 0 4.62 0 7 0 C7 0.33 7 0.66 7 1 C4.69 1 2.38 1 0 1 C0 0.67 0 0.34 0 0 Z " fill="#06A7E3" transform="translate(145,281)"/>
<path d="M0 0 C2.31 0 4.62 0 7 0 C7 0.33 7 0.66 7 1 C4.69 1 2.38 1 0 1 C0 0.67 0 0.34 0 0 Z " fill="#04B3E5" transform="translate(138,280)"/>
<path d="M0 0 C1.32 1.32 2.64 2.64 4 4 C2.68 3.34 1.36 2.68 0 2 C0 1.34 0 0.68 0 0 Z " fill="#0698E4" transform="translate(61,244)"/>
<path d="M0 0 C0.33 0 0.66 0 1 0 C1 2.31 1 4.62 1 7 C0.67 7 0.34 7 0 7 C0 4.69 0 2.38 0 0 Z " fill="#0391D6" transform="translate(118,238)"/>
<path d="M0 0 C2.31 0 4.62 0 7 0 C7 0.33 7 0.66 7 1 C4.69 1 2.38 1 0 1 C0 0.67 0 0.34 0 0 Z " fill="#61B235" transform="translate(152,133)"/>
<path d="M0 0 C2.31 0 4.62 0 7 0 C7 0.33 7 0.66 7 1 C4.69 1 2.38 1 0 1 C0 0.67 0 0.34 0 0 Z " fill="#58B329" transform="translate(257,122)"/>
<path d="M0 0 C2.31 0 4.62 0 7 0 C7 0.33 7 0.66 7 1 C4.69 1 2.38 1 0 1 C0 0.67 0 0.34 0 0 Z " fill="#5FB130" transform="translate(264,121)"/>
<path d="M0 0 C0.33 0 0.66 0 1 0 C1 1.98 1 3.96 1 6 C0.67 6 0.34 6 0 6 C0 4.02 0 2.04 0 0 Z " fill="#F79E36" transform="translate(465,415)"/>
<path d="M0 0 C0 0.99 0 1.98 0 3 C-0.99 3.495 -0.99 3.495 -2 4 C-1.34 2.68 -0.68 1.36 0 0 Z " fill="#04A7E6" transform="translate(85,409)"/>
<path d="M0 0 C0.66 0.33 1.32 0.66 2 1 C0.02 1.99 0.02 1.99 -2 3 C-1.34 2.01 -0.68 1.02 0 0 Z " fill="#04ACE5" transform="translate(94,400)"/>
<path d="M0 0 C1.98 0 3.96 0 6 0 C6 0.33 6 0.66 6 1 C4.02 1 2.04 1 0 1 C0 0.67 0 0.34 0 0 Z " fill="#E0A431" transform="translate(220,391)"/>
<path d="M0 0 C1.98 0 3.96 0 6 0 C6 0.33 6 0.66 6 1 C4.02 1 2.04 1 0 1 C0 0.67 0 0.34 0 0 Z " fill="#E1AA3A" transform="translate(226,390)"/>
<path d="M0 0 C1.98 0 3.96 0 6 0 C6 0.33 6 0.66 6 1 C4.02 1 2.04 1 0 1 C0 0.67 0 0.34 0 0 Z " fill="#ED923E" transform="translate(232,389)"/>
<path d="M0 0 C1.98 0 3.96 0 6 0 C6 0.33 6 0.66 6 1 C4.02 1 2.04 1 0 1 C0 0.67 0 0.34 0 0 Z " fill="#E39A3D" transform="translate(238,388)"/>
<path d="M0 0 C1.98 0 3.96 0 6 0 C6 0.33 6 0.66 6 1 C4.02 1 2.04 1 0 1 C0 0.67 0 0.34 0 0 Z " fill="#F3C243" transform="translate(364,374)"/>
<path d="M0 0 C1.98 0 3.96 0 6 0 C6 0.33 6 0.66 6 1 C4.02 1 2.04 1 0 1 C0 0.67 0 0.34 0 0 Z " fill="#05A0DA" transform="translate(372,228)"/>
<path d="M0 0 C1.98 0 3.96 0 6 0 C6 0.33 6 0.66 6 1 C4.02 1 2.04 1 0 1 C0 0.67 0 0.34 0 0 Z " fill="#0892D5" transform="translate(365,227)"/>
<path d="M0 0 C1.98 0 3.96 0 6 0 C6 0.33 6 0.66 6 1 C4.02 1 2.04 1 0 1 C0 0.67 0 0.34 0 0 Z " fill="#67C027" transform="translate(140,135)"/>
<path d="M0 0 C1.98 0 3.96 0 6 0 C6 0.33 6 0.66 6 1 C4.02 1 2.04 1 0 1 C0 0.67 0 0.34 0 0 Z " fill="#55B626" transform="translate(146,134)"/>
<path d="M0 0 C1.98 0 3.96 0 6 0 C6 0.33 6 0.66 6 1 C4.02 1 2.04 1 0 1 C0 0.67 0 0.34 0 0 Z " fill="#64B921" transform="translate(271,120)"/>
<path d="M0 0 C1.98 0 3.96 0 6 0 C6 0.33 6 0.66 6 1 C4.02 1 2.04 1 0 1 C0 0.67 0 0.34 0 0 Z " fill="#5DB822" transform="translate(278,119)"/>
<path d="M0 0 C1.98 0 3.96 0 6 0 C6 0.33 6 0.66 6 1 C4.02 1 2.04 1 0 1 C0 0.67 0 0.34 0 0 Z " fill="#60B033" transform="translate(284,118)"/>
<path d="M0 0 C1.98 0 3.96 0 6 0 C6 0.33 6 0.66 6 1 C4.02 1 2.04 1 0 1 C0 0.67 0 0.34 0 0 Z " fill="#65BB27" transform="translate(300,115)"/>
<path d="M0 0 C0.66 0.33 1.32 0.66 2 1 C0.02 1.99 0.02 1.99 -2 3 C-1.34 2.01 -0.68 1.02 0 0 Z " fill="#03A8E3" transform="translate(419,107)"/>
<path d="M0 0 C0.33 0 0.66 0 1 0 C1 1.98 1 3.96 1 6 C0.67 6 0.34 6 0 6 C0 4.02 0 2.04 0 0 Z " fill="#03A5EC" transform="translate(465,90)"/>
<path d="M0 0 C1.65 0 3.3 0 5 0 C5 0.33 5 0.66 5 1 C3.35 1 1.7 1 0 1 C0 0.67 0 0.34 0 0 Z " fill="#E6942C" transform="translate(87,464)"/>
<path d="M0 0 C0.33 0 0.66 0 1 0 C1 1.65 1 3.3 1 5 C0.67 5 0.34 5 0 5 C0 3.35 0 1.7 0 0 Z " fill="#0692DB" transform="translate(45,417)"/>
<path d="M0 0 C1.65 0 3.3 0 5 0 C5 0.33 5 0.66 5 1 C3.35 1 1.7 1 0 1 C0 0.67 0 0.34 0 0 Z " fill="#E4923D" transform="translate(196,396)"/>
<path d="M0 0 C1.65 0 3.3 0 5 0 C5 0.33 5 0.66 5 1 C3.35 1 1.7 1 0 1 C0 0.67 0 0.34 0 0 Z " fill="#EAB745" transform="translate(205,394)"/>
<path d="M0 0 C1.65 0 3.3 0 5 0 C5 0.33 5 0.66 5 1 C3.35 1 1.7 1 0 1 C0 0.67 0 0.34 0 0 Z " fill="#EDA247" transform="translate(210,393)"/>
<path d="M0 0 C1.65 0 3.3 0 5 0 C5 0.33 5 0.66 5 1 C3.35 1 1.7 1 0 1 C0 0.67 0 0.34 0 0 Z " fill="#E59039" transform="translate(215,392)"/>
<path d="M0 0 C1.65 0 3.3 0 5 0 C5 0.33 5 0.66 5 1 C3.35 1 1.7 1 0 1 C0 0.67 0 0.34 0 0 Z " fill="#E7A742" transform="translate(370,373)"/>
<path d="M0 0 C1.65 0 3.3 0 5 0 C5 0.33 5 0.66 5 1 C3.35 1 1.7 1 0 1 C0 0.67 0 0.34 0 0 Z " fill="#E19946" transform="translate(375,372)"/>
<path d="M0 0 C1.65 0 3.3 0 5 0 C5 0.33 5 0.66 5 1 C3.35 1 1.7 1 0 1 C0 0.67 0 0.34 0 0 Z " fill="#DB9F3A" transform="translate(380,371)"/>
<path d="M0 0 C1.65 0 3.3 0 5 0 C5 0.33 5 0.66 5 1 C3.35 1 1.7 1 0 1 C0 0.67 0 0.34 0 0 Z " fill="#05A1DB" transform="translate(272,320)"/>
<path d="M0 0 C1.65 0 3.3 0 5 0 C5 0.33 5 0.66 5 1 C3.35 1 1.7 1 0 1 C0 0.67 0 0.34 0 0 Z " fill="#06AAEB" transform="translate(133,279)"/>
<path d="M0 0 C1.65 0 3.3 0 5 0 C5 0.33 5 0.66 5 1 C3.35 1 1.7 1 0 1 C0 0.67 0 0.34 0 0 Z " fill="#05A3DF" transform="translate(124,277)"/>
<path d="M0 0 C1.65 0 3.3 0 5 0 C5 0.33 5 0.66 5 1 C3.35 1 1.7 1 0 1 C0 0.67 0 0.34 0 0 Z " fill="#039EE3" transform="translate(383,230)"/>
<path d="M0 0 C1.65 0 3.3 0 5 0 C5 0.33 5 0.66 5 1 C3.35 1 1.7 1 0 1 C0 0.67 0 0.34 0 0 Z " fill="#049CDD" transform="translate(378,229)"/>
<path d="M0 0 C1.65 0 3.3 0 5 0 C5 0.33 5 0.66 5 1 C3.35 1 1.7 1 0 1 C0 0.67 0 0.34 0 0 Z " fill="#04A2E5" transform="translate(219,192)"/>
<path d="M0 0 C1.65 0 3.3 0 5 0 C5 0.33 5 0.66 5 1 C3.35 1 1.7 1 0 1 C0 0.67 0 0.34 0 0 Z " fill="#04AAE2" transform="translate(228,190)"/>
<path d="M0 0 C1.65 0 3.3 0 5 0 C5 0.33 5 0.66 5 1 C3.35 1 1.7 1 0 1 C0 0.67 0 0.34 0 0 Z " fill="#5BB332" transform="translate(130,137)"/>
<path d="M0 0 C1.65 0 3.3 0 5 0 C5 0.33 5 0.66 5 1 C3.35 1 1.7 1 0 1 C0 0.67 0 0.34 0 0 Z " fill="#69B62F" transform="translate(135,136)"/>
<path d="M0 0 C1.65 0 3.3 0 5 0 C5 0.33 5 0.66 5 1 C3.35 1 1.7 1 0 1 C0 0.67 0 0.34 0 0 Z " fill="#68B12E" transform="translate(290,117)"/>
<path d="M0 0 C1.65 0 3.3 0 5 0 C5 0.33 5 0.66 5 1 C3.35 1 1.7 1 0 1 C0 0.67 0 0.34 0 0 Z " fill="#66B729" transform="translate(295,116)"/>
<path d="M0 0 C1.65 0 3.3 0 5 0 C5 0.33 5 0.66 5 1 C3.35 1 1.7 1 0 1 C0 0.67 0 0.34 0 0 Z " fill="#57B629" transform="translate(314,112)"/>
<path d="M0 0 C0.33 0 0.66 0 1 0 C1 1.65 1 3.3 1 5 C0.67 5 0.34 5 0 5 C0 3.35 0 1.7 0 0 Z " fill="#52B220" transform="translate(45,91)"/>
<path d="M0 0 C1.65 0 3.3 0 5 0 C5 0.33 5 0.66 5 1 C3.35 1 1.7 1 0 1 C0 0.67 0 0.34 0 0 Z " fill="#7CB924" transform="translate(419,46)"/>
<path d="M0 0 C4 1 4 1 4 1 Z " fill="#EB9C2B" transform="translate(419,464)"/>
<path d="M0 0 C4 1 4 1 4 1 Z " fill="#E59032" transform="translate(423,463)"/>
<path d="M0 0 C0.66 0.33 1.32 0.66 2 1 C1.01 1 0.02 1 -1 1 C-0.67 0.67 -0.34 0.34 0 0 Z " fill="#EB8141" transform="translate(444,452)"/>
<path d="M0 0 C0.66 0.33 1.32 0.66 2 1 C1.01 1 0.02 1 -1 1 C-0.67 0.67 -0.34 0.34 0 0 Z " fill="#E99D4E" transform="translate(90,443)"/>
<path d="M0 0 C0 3 0 3 0 3 Z " fill="#05A3E6" transform="translate(70,428)"/>
<path d="M0 0 C0 3 0 3 0 3 Z " fill="#02A8E3" transform="translate(72,425)"/>
<path d="M0 0 C0.66 0.33 1.32 0.66 2 1 C1.01 1 0.02 1 -1 1 C-0.67 0.67 -0.34 0.34 0 0 Z " fill="#EF834A" transform="translate(118,424)"/>
<path d="M0 0 C0 3 0 3 0 3 Z " fill="#059DE5" transform="translate(78,417)"/>
<path d="M0 0 C4 1 4 1 4 1 Z " fill="#E99D42" transform="translate(173,402)"/>
<path d="M0 0 C4 1 4 1 4 1 Z " fill="#DF9C3F" transform="translate(180,400)"/>
<path d="M0 0 C4 1 4 1 4 1 Z " fill="#EDAC3B" transform="translate(184,399)"/>
<path d="M0 0 C4 1 4 1 4 1 Z " fill="#F3BF49" transform="translate(188,398)"/>
<path d="M0 0 C4 1 4 1 4 1 Z " fill="#E6A646" transform="translate(192,397)"/>
<path d="M0 0 C4 1 4 1 4 1 Z " fill="#E39D32" transform="translate(201,395)"/>
<path d="M0 0 C0.66 0.33 1.32 0.66 2 1 C1.01 1 0.02 1 -1 1 C-0.67 0.67 -0.34 0.34 0 0 Z " fill="#03A2E6" transform="translate(101,394)"/>
<path d="M0 0 C0.66 0.33 1.32 0.66 2 1 C1.01 1 0.02 1 -1 1 C-0.67 0.67 -0.34 0.34 0 0 Z " fill="#03A1E1" transform="translate(106,390)"/>
<path d="M0 0 C4 1 4 1 4 1 Z " fill="#EAB659" transform="translate(385,370)"/>
<path d="M0 0 C4 1 4 1 4 1 Z " fill="#E3A84F" transform="translate(389,369)"/>
<path d="M0 0 C4 1 4 1 4 1 Z " fill="#DC9037" transform="translate(393,368)"/>
<path d="M0 0 C4 1 4 1 4 1 Z " fill="#E9A238" transform="translate(397,367)"/>
<path d="M0 0 C0.66 0.33 1.32 0.66 2 1 C1.01 1 0.02 1 -1 1 C-0.67 0.67 -0.34 0.34 0 0 Z " fill="#DFA349" transform="translate(447,344)"/>
<path d="M0 0 C4 1 4 1 4 1 Z " fill="#059EDA" transform="translate(231,331)"/>
<path d="M0 0 C4 1 4 1 4 1 Z " fill="#04A7E2" transform="translate(241,328)"/>
<path d="M0 0 C4 1 4 1 4 1 Z " fill="#069BDA" transform="translate(245,327)"/>
<path d="M0 0 C4 1 4 1 4 1 Z " fill="#069EE3" transform="translate(252,325)"/>
<path d="M0 0 C4 1 4 1 4 1 Z " fill="#05A0E1" transform="translate(256,324)"/>
<path d="M0 0 C4 1 4 1 4 1 Z " fill="#069CDD" transform="translate(260,323)"/>
<path d="M0 0 C4 1 4 1 4 1 Z " fill="#0594DB" transform="translate(264,322)"/>
<path d="M0 0 C4 1 4 1 4 1 Z " fill="#059AE3" transform="translate(268,321)"/>
<path d="M0 0 C4 1 4 1 4 1 Z " fill="#068FD1" transform="translate(277,319)"/>
<path d="M0 0 C4 1 4 1 4 1 Z " fill="#0692D7" transform="translate(281,318)"/>
<path d="M0 0 C4 1 4 1 4 1 Z " fill="#049CE5" transform="translate(285,317)"/>
<path d="M0 0 C4 1 4 1 4 1 Z " fill="#0795DC" transform="translate(290,316)"/>
<path d="M0 0 C4 1 4 1 4 1 Z " fill="#0694D9" transform="translate(294,315)"/>
<path d="M0 0 C4 1 4 1 4 1 Z " fill="#0794DA" transform="translate(298,314)"/>
<path d="M0 0 C4 1 4 1 4 1 Z " fill="#049CE4" transform="translate(302,313)"/>
<path d="M0 0 C4 1 4 1 4 1 Z " fill="#049FE4" transform="translate(306,312)"/>
<path d="M0 0 C4 1 4 1 4 1 Z " fill="#05A1E2" transform="translate(314,310)"/>
<path d="M0 0 C4 1 4 1 4 1 Z " fill="#059AE6" transform="translate(318,309)"/>
<path d="M0 0 C4 1 4 1 4 1 Z " fill="#079ADD" transform="translate(322,308)"/>
<path d="M0 0 C4 1 4 1 4 1 Z " fill="#0695DA" transform="translate(326,307)"/>
<path d="M0 0 C4 1 4 1 4 1 Z " fill="#04A9D9" transform="translate(339,303)"/>
<path d="M0 0 C4 1 4 1 4 1 Z " fill="#0598DD" transform="translate(183,281)"/>
<path d="M0 0 C4 1 4 1 4 1 Z " fill="#059AD7" transform="translate(176,279)"/>
<path d="M0 0 C4 1 4 1 4 1 Z " fill="#059FE5" transform="translate(129,278)"/>
<path d="M0 0 C4 1 4 1 4 1 Z " fill="#02A4E9" transform="translate(120,276)"/>
<path d="M0 0 C4 1 4 1 4 1 Z " fill="#03A8EA" transform="translate(116,275)"/>
<path d="M0 0 C4 1 4 1 4 1 Z " fill="#04B0E7" transform="translate(109,273)"/>
<path d="M0 0 C0.99 0.495 0.99 0.495 2 1 C1.67 1.66 1.34 2.32 1 3 C0.67 2.01 0.34 1.02 0 0 Z " fill="#029DDF" transform="translate(457,268)"/>
<path d="M0 0 C1 4 1 4 1 4 Z " fill="#03A3F2" transform="translate(395,268)"/>
<path d="M0 0 C1 4 1 4 1 4 Z " fill="#049DEB" transform="translate(395,262)"/>
<path d="M0 0 C0.99 0.33 1.98 0.66 3 1 C2.01 1 1.02 1 0 1 C0 0.67 0 0.34 0 0 Z " fill="#03AAE0" transform="translate(128,257)"/>
<path d="M0 0 C0.99 0.33 1.98 0.66 3 1 C2.01 1 1.02 1 0 1 C0 0.67 0 0.34 0 0 Z " fill="#02AEE3" transform="translate(69,252)"/>
<path d="M0 0 C4 1 4 1 4 1 Z " fill="#0597E0" transform="translate(399,234)"/>
<path d="M0 0 C4 1 4 1 4 1 Z " fill="#049EDC" transform="translate(392,232)"/>
<path d="M0 0 C4 1 4 1 4 1 Z " fill="#0496DD" transform="translate(388,231)"/>
<path d="M0 0 C4 1 4 1 4 1 Z " fill="#06A3E2" transform="translate(339,230)"/>
<path d="M0 0 C4 1 4 1 4 1 Z " fill="#039DE3" transform="translate(332,228)"/>
<path d="M0 0 C4 1 4 1 4 1 Z " fill="#04ADE6" transform="translate(325,226)"/>
<path d="M0 0 C4 1 4 1 4 1 Z " fill="#05ADE1" transform="translate(167,206)"/>
<path d="M0 0 C4 1 4 1 4 1 Z " fill="#04A9E6" transform="translate(180,202)"/>
<path d="M0 0 C4 1 4 1 4 1 Z " fill="#049CE6" transform="translate(187,200)"/>
<path d="M0 0 C4 1 4 1 4 1 Z " fill="#0593DC" transform="translate(194,198)"/>
<path d="M0 0 C4 1 4 1 4 1 Z " fill="#0498D9" transform="translate(198,197)"/>
<path d="M0 0 C4 1 4 1 4 1 Z " fill="#04A9E8" transform="translate(215,193)"/>
<path d="M0 0 C4 1 4 1 4 1 Z " fill="#059FE6" transform="translate(224,191)"/>
<path d="M0 0 C4 1 4 1 4 1 Z " fill="#04B0EE" transform="translate(233,189)"/>
<path d="M0 0 C4 1 4 1 4 1 Z " fill="#05A0E9" transform="translate(237,188)"/>
<path d="M0 0 C4 1 4 1 4 1 Z " fill="#059DE2" transform="translate(241,187)"/>
<path d="M0 0 C4 1 4 1 4 1 Z " fill="#049BDE" transform="translate(245,186)"/>
<path d="M0 0 C4 1 4 1 4 1 Z " fill="#049BDA" transform="translate(249,185)"/>
<path d="M0 0 C4 1 4 1 4 1 Z " fill="#04A7EA" transform="translate(253,184)"/>
<path d="M0 0 C4 1 4 1 4 1 Z " fill="#05A2E8" transform="translate(257,183)"/>
<path d="M0 0 C4 1 4 1 4 1 Z " fill="#04ADE7" transform="translate(261,182)"/>
<path d="M0 0 C4 1 4 1 4 1 Z " fill="#04A2E8" transform="translate(268,180)"/>
<path d="M0 0 C4 1 4 1 4 1 Z " fill="#04ACE0" transform="translate(275,178)"/>
<path d="M0 0 C4 1 4 1 4 1 Z " fill="#05AFE4" transform="translate(285,175)"/>
<path d="M0 0 C0 3 0 3 0 3 Z " fill="#61CF3A" transform="translate(56,173)"/>
<path d="M0 0 C0.66 0.33 1.32 0.66 2 1 C1.01 1 0.02 1 -1 1 C-0.67 0.67 -0.34 0.34 0 0 Z " fill="#5ED135" transform="translate(63,166)"/>
<path d="M0 0 C4 1 4 1 4 1 Z " fill="#66B534" transform="translate(111,142)"/>
<path d="M0 0 C4 1 4 1 4 1 Z " fill="#61B22F" transform="translate(118,140)"/>
<path d="M0 0 C4 1 4 1 4 1 Z " fill="#62B425" transform="translate(122,139)"/>
<path d="M0 0 C4 1 4 1 4 1 Z " fill="#5FB72A" transform="translate(126,138)"/>
<path d="M0 0 C0.66 0.33 1.32 0.66 2 1 C1.01 1 0.02 1 -1 1 C-0.67 0.67 -0.34 0.34 0 0 Z " fill="#04AAEB" transform="translate(396,125)"/>
<path d="M0 0 C4 1 4 1 4 1 Z " fill="#64B02C" transform="translate(306,114)"/>
<path d="M0 0 C4 1 4 1 4 1 Z " fill="#56B428" transform="translate(310,113)"/>
<path d="M0 0 C4 1 4 1 4 1 Z " fill="#65BF27" transform="translate(319,111)"/>
<path d="M0 0 C4 1 4 1 4 1 Z " fill="#4DC421" transform="translate(323,110)"/>
<path d="M0 0 C4 1 4 1 4 1 Z " fill="#51BA28" transform="translate(327,109)"/>
<path d="M0 0 C4 1 4 1 4 1 Z " fill="#69BC2F" transform="translate(331,108)"/>
<path d="M0 0 C4 1 4 1 4 1 Z " fill="#4FC226" transform="translate(338,106)"/>
<path d="M0 0 C4 1 4 1 4 1 Z " fill="#60C52A" transform="translate(348,103)"/>
<path d="M0 0 C0 3 0 3 0 3 Z " fill="#02A1E5" transform="translate(432,94)"/>
<path d="M0 0 C1 4 1 4 1 4 Z " fill="#50A321" transform="translate(46,87)"/>
<path d="M0 0 C1 4 1 4 1 4 Z " fill="#04A1E3" transform="translate(464,86)"/>
<path d="M0 0 C0.66 0.33 1.32 0.66 2 1 C1.01 1 0.02 1 -1 1 C-0.67 0.67 -0.34 0.34 0 0 Z " fill="#5DC83B" transform="translate(420,67)"/>
<path d="M0 0 C0 3 0 3 0 3 Z " fill="#60C43C" transform="translate(58,65)"/>
<path d="M0 0 C0.66 0.33 1.32 0.66 2 1 C1.01 1 0.02 1 -1 1 C-0.67 0.67 -0.34 0.34 0 0 Z " fill="#5FB343" transform="translate(426,62)"/>
<path d="M0 0 C4 1 4 1 4 1 Z " fill="#55C72E" transform="translate(84,47)"/>
<path d="M0 0 C4 1 4 1 4 1 Z " fill="#80D832" transform="translate(88,46)"/>
<path d="M0 0 C3 1 3 1 3 1 Z " fill="#E39435" transform="translate(84,463)"/>
<path d="M0 0 C3 1 3 1 3 1 Z " fill="#E3983F" transform="translate(81,462)"/>
<path d="M0 0 C3 1 3 1 3 1 Z " fill="#EB9541" transform="translate(429,461)"/>
<path d="" fill="#0695DF" transform="translate(0,0)"/>
<path d="" fill="#0597E1" transform="translate(0,0)"/>
<path d="" fill="#FF9821" transform="translate(0,0)"/>
<path d="" fill="#0594DB" transform="translate(0,0)"/>
<path d="" fill="#FAA52B" transform="translate(0,0)"/>
<path d="M0 0 C3 1 3 1 3 1 Z " fill="#E5AA42" transform="translate(132,417)"/>
<path d="M0 0 C3 1 3 1 3 1 Z " fill="#EF9946" transform="translate(139,414)"/>
<path d="M0 0 C3 1 3 1 3 1 Z " fill="#E79837" transform="translate(144,412)"/>
<path d="M0 0 C3 1 3 1 3 1 Z " fill="#E4AE51" transform="translate(149,410)"/>
<path d="M0 0 C3 1 3 1 3 1 Z " fill="#E99A39" transform="translate(152,409)"/>
<path d="M0 0 C3 1 3 1 3 1 Z " fill="#EF9433" transform="translate(155,408)"/>
<path d="M0 0 C3 1 3 1 3 1 Z " fill="#EE9B2D" transform="translate(164,405)"/>
<path d="M0 0 C3 1 3 1 3 1 Z " fill="#EF9837" transform="translate(167,404)"/>
<path d="M0 0 C3 1 3 1 3 1 Z " fill="#DF9B37" transform="translate(170,403)"/>
<path d="M0 0 C3 1 3 1 3 1 Z " fill="#EBAF4A" transform="translate(177,401)"/>
<path d="M0 0 C3 1 3 1 3 1 Z " fill="#F2B142" transform="translate(401,366)"/>
<path d="M0 0 C3 1 3 1 3 1 Z " fill="#E9A037" transform="translate(404,365)"/>
<path d="M0 0 C3 1 3 1 3 1 Z " fill="#E5A236" transform="translate(407,364)"/>
<path d="M0 0 C3 1 3 1 3 1 Z " fill="#E89738" transform="translate(410,363)"/>
<path d="M0 0 C3 1 3 1 3 1 Z " fill="#F2A13B" transform="translate(413,362)"/>
<path d="M0 0 C3 1 3 1 3 1 Z " fill="#E38337" transform="translate(418,360)"/>
<path d="M0 0 C3 1 3 1 3 1 Z " fill="#04A0DB" transform="translate(166,355)"/>
<path d="M0 0 C3 1 3 1 3 1 Z " fill="#049BE0" transform="translate(180,349)"/>
<path d="M0 0 C3 1 3 1 3 1 Z " fill="#0499DC" transform="translate(185,347)"/>
<path d="M0 0 C3 1 3 1 3 1 Z " fill="#0399DF" transform="translate(190,345)"/>
<path d="M0 0 C3 1 3 1 3 1 Z " fill="#0391D5" transform="translate(193,344)"/>
<path d="M0 0 C3 1 3 1 3 1 Z " fill="#049CE1" transform="translate(198,342)"/>
<path d="M0 0 C3 1 3 1 3 1 Z " fill="#0498E0" transform="translate(201,341)"/>
<path d="M0 0 C3 1 3 1 3 1 Z " fill="#0499E2" transform="translate(204,340)"/>
<path d="M0 0 C3 1 3 1 3 1 Z " fill="#0690D4" transform="translate(207,339)"/>
<path d="M0 0 C3 1 3 1 3 1 Z " fill="#0690D4" transform="translate(210,338)"/>
<path d="M0 0 C3 1 3 1 3 1 Z " fill="#0693D7" transform="translate(213,337)"/>
<path d="M0 0 C3 1 3 1 3 1 Z " fill="#0693D7" transform="translate(216,336)"/>
<path d="M0 0 C3 1 3 1 3 1 Z " fill="#0696DE" transform="translate(219,335)"/>
<path d="M0 0 C3 1 3 1 3 1 Z " fill="#0595DB" transform="translate(222,334)"/>
<path d="M0 0 C3 1 3 1 3 1 Z " fill="#0497E0" transform="translate(225,333)"/>
<path d="M0 0 C3 1 3 1 3 1 Z " fill="#049CE4" transform="translate(228,332)"/>
<path d="M0 0 C3 1 3 1 3 1 Z " fill="#0792D6" transform="translate(235,330)"/>
<path d="M0 0 C3 1 3 1 3 1 Z " fill="#049CE6" transform="translate(238,329)"/>
<path d="M0 0 C3 1 3 1 3 1 Z " fill="#0595DC" transform="translate(249,326)"/>
<path d="M0 0 C3 1 3 1 3 1 Z " fill="#0792D8" transform="translate(311,311)"/>
<path d="M0 0 C3 1 3 1 3 1 Z " fill="#0791D4" transform="translate(330,306)"/>
<path d="M0 0 C3 1 3 1 3 1 Z " fill="#0596E1" transform="translate(333,305)"/>
<path d="M0 0 C3 1 3 1 3 1 Z " fill="#039EE8" transform="translate(336,304)"/>
<path d="M0 0 C3 1 3 1 3 1 Z " fill="#078FD1" transform="translate(343,302)"/>
<path d="M0 0 C3 1 3 1 3 1 Z " fill="#0694DB" transform="translate(346,301)"/>
<path d="M0 0 C3 1 3 1 3 1 Z " fill="#068FD2" transform="translate(349,300)"/>
<path d="M0 0 C3 1 3 1 3 1 Z " fill="#05A6E8" transform="translate(354,298)"/>
<path d="M0 0 C3 1 3 1 3 1 Z " fill="#0596DC" transform="translate(357,297)"/>
<path d="M0 0 C3 1 3 1 3 1 Z " fill="#02B3E3" transform="translate(364,294)"/>
<path d="M0 0 C3 1 3 1 3 1 Z " fill="#0895DB" transform="translate(187,282)"/>
<path d="M0 0 C3 1 3 1 3 1 Z " fill="#049BE3" transform="translate(180,280)"/>
<path d="M0 0 C3 1 3 1 3 1 Z " fill="#048FD4" transform="translate(173,278)"/>
<path d="M0 0 C3 1 3 1 3 1 Z " fill="#0492D9" transform="translate(170,277)"/>
<path d="M0 0 C3 1 3 1 3 1 Z " fill="#0593D9" transform="translate(167,276)"/>
<path d="M0 0 C3 1 3 1 3 1 Z " fill="#0591D8" transform="translate(164,275)"/>
<path d="M0 0 C3 1 3 1 3 1 Z " fill="#0491D5" transform="translate(161,274)"/>
<path d="M0 0 C3 1 3 1 3 1 Z " fill="#039EED" transform="translate(113,274)"/>
<path d="M0 0 C3 1 3 1 3 1 Z " fill="#039DDF" transform="translate(156,272)"/>
<path d="M0 0 C3 1 3 1 3 1 Z " fill="#049EE0" transform="translate(104,271)"/>
<path d="M0 0 C3 1 3 1 3 1 Z " fill="#0498DB" transform="translate(151,270)"/>
<path d="M0 0 C3 1 3 1 3 1 Z " fill="#049DDF" transform="translate(101,270)"/>
<path d="M0 0 C3 1 3 1 3 1 Z " fill="#029BDF" transform="translate(96,268)"/>
<path d="" fill="#0193DD" transform="translate(0,0)"/>
<path d="M0 0 C3 1 3 1 3 1 Z " fill="#03B9EB" transform="translate(366,240)"/>
<path d="M0 0 C3 1 3 1 3 1 Z " fill="#039EDC" transform="translate(414,239)"/>
<path d="M0 0 C3 1 3 1 3 1 Z " fill="#029DE6" transform="translate(409,237)"/>
<path d="M0 0 C3 1 3 1 3 1 Z " fill="#049DE3" transform="translate(359,237)"/>
<path d="M0 0 C3 1 3 1 3 1 Z " fill="#049AE0" transform="translate(406,236)"/>
<path d="" fill="#0296E0" transform="translate(0,0)"/>
<path d="M0 0 C3 1 3 1 3 1 Z " fill="#0596DD" transform="translate(403,235)"/>
<path d="M0 0 C3 1 3 1 3 1 Z " fill="#049ADD" transform="translate(354,235)"/>
<path d="M0 0 C3 1 3 1 3 1 Z " fill="#02ACEB" transform="translate(351,234)"/>
<path d="M0 0 C3 1 3 1 3 1 Z " fill="#0595DB" transform="translate(396,233)"/>
<path d="M0 0 C3 1 3 1 3 1 Z " fill="#02ADF1" transform="translate(348,233)"/>
<path d="M0 0 C3 1 3 1 3 1 Z " fill="#04A0E8" transform="translate(336,229)"/>
<path d="M0 0 C3 1 3 1 3 1 Z " fill="#05A8ED" transform="translate(329,227)"/>
<path d="M0 0 C3 1 3 1 3 1 Z " fill="#04ABE8" transform="translate(149,213)"/>
<path d="M0 0 C3 1 3 1 3 1 Z " fill="#06BEEC" transform="translate(154,211)"/>
<path d="M0 0 C3 1 3 1 3 1 Z " fill="#03AEEA" transform="translate(159,209)"/>
<path d="M0 0 C3 1 3 1 3 1 Z " fill="#03B9F3" transform="translate(171,205)"/>
<path d="M0 0 C3 1 3 1 3 1 Z " fill="#05A5EC" transform="translate(174,204)"/>
<path d="M0 0 C3 1 3 1 3 1 Z " fill="#069BE2" transform="translate(177,203)"/>
<path d="M0 0 C3 1 3 1 3 1 Z " fill="#04AAEC" transform="translate(184,201)"/>
<path d="M0 0 C3 1 3 1 3 1 Z " fill="#05A0E5" transform="translate(191,199)"/>
<path d="M0 0 C3 1 3 1 3 1 Z " fill="#05A9EF" transform="translate(203,196)"/>
<path d="M0 0 C3 1 3 1 3 1 Z " fill="#05ACEF" transform="translate(265,181)"/>
<path d="M0 0 C3 1 3 1 3 1 Z " fill="#05A0E7" transform="translate(272,179)"/>
<path d="M0 0 C3 1 3 1 3 1 Z " fill="#05AAED" transform="translate(279,177)"/>
<path d="M0 0 C3 1 3 1 3 1 Z " fill="#06A1E5" transform="translate(282,176)"/>
<path d="M0 0 C3 1 3 1 3 1 Z " fill="#05B2F0" transform="translate(289,174)"/>
<path d="M0 0 C3 1 3 1 3 1 Z " fill="#04ACEC" transform="translate(292,173)"/>
<path d="M0 0 C3 1 3 1 3 1 Z " fill="#06A3E4" transform="translate(295,172)"/>
<path d="M0 0 C3 1 3 1 3 1 Z " fill="#06A1E4" transform="translate(298,171)"/>
<path d="M0 0 C3 1 3 1 3 1 Z " fill="#05A2E2" transform="translate(301,170)"/>
<path d="M0 0 C3 1 3 1 3 1 Z " fill="#069CE5" transform="translate(304,169)"/>
<path d="M0 0 C3 1 3 1 3 1 Z " fill="#04A8EE" transform="translate(307,168)"/>
<path d="M0 0 C3 1 3 1 3 1 Z " fill="#05BFEF" transform="translate(310,167)"/>
<path d="M0 0 C3 1 3 1 3 1 Z " fill="#079ADF" transform="translate(315,165)"/>
<path d="M0 0 C3 1 3 1 3 1 Z " fill="#05B3ED" transform="translate(318,164)"/>
<path d="M0 0 C3 1 3 1 3 1 Z " fill="#0698D9" transform="translate(323,162)"/>
<path d="M0 0 C3 1 3 1 3 1 Z " fill="#069DDB" transform="translate(328,160)"/>
<path d="M0 0 C3 1 3 1 3 1 Z " fill="#06A0DF" transform="translate(333,158)"/>
<path d="M0 0 C3 1 3 1 3 1 Z " fill="#05B8E6" transform="translate(338,156)"/>
<path d="M0 0 C3 1 3 1 3 1 Z " fill="#06A4E2" transform="translate(347,152)"/>
<path d="M0 0 C3 1 3 1 3 1 Z " fill="#63C438" transform="translate(94,148)"/>
<path d="M0 0 C3 1 3 1 3 1 Z " fill="#54CD24" transform="translate(99,146)"/>
<path d="M0 0 C3 1 3 1 3 1 Z " fill="#5FBD2B" transform="translate(102,145)"/>
<path d="M0 0 C3 1 3 1 3 1 Z " fill="#5AAE26" transform="translate(105,144)"/>
<path d="M0 0 C3 1 3 1 3 1 Z " fill="#69BC2A" transform="translate(108,143)"/>
<path d="M0 0 C3 1 3 1 3 1 Z " fill="#67AD30" transform="translate(115,141)"/>
<path d="M0 0 C3 1 3 1 3 1 Z " fill="#64B927" transform="translate(335,107)"/>
<path d="M0 0 C3 1 3 1 3 1 Z " fill="#69B62D" transform="translate(342,105)"/>
<path d="M0 0 C3 1 3 1 3 1 Z " fill="#5AB621" transform="translate(345,104)"/>
<path d="M0 0 C3 1 3 1 3 1 Z " fill="#6FAF3C" transform="translate(352,102)"/>
<path d="M0 0 C3 1 3 1 3 1 Z " fill="#45BB20" transform="translate(357,100)"/>
<path d="M0 0 C3 1 3 1 3 1 Z " fill="#64C12C" transform="translate(360,99)"/>
<path d="M0 0 C3 1 3 1 3 1 Z " fill="#65B12D" transform="translate(363,98)"/>
<path d="M0 0 C3 1 3 1 3 1 Z " fill="#58B32E" transform="translate(368,96)"/>
<path d="M0 0 C3 1 3 1 3 1 Z " fill="#5CBC2E" transform="translate(373,94)"/>
<path d="" fill="#49B821" transform="translate(0,0)"/>
<path d="" fill="#069AE4" transform="translate(0,0)"/>
<path d="" fill="#4BB827" transform="translate(0,0)"/>
<path d="M0 0 C3 1 3 1 3 1 Z " fill="#5FD743" transform="translate(79,49)"/>
<path d="M0 0 C3 1 3 1 3 1 Z " fill="#7DCA41" transform="translate(427,48)"/>
<path d="M0 0 C3 1 3 1 3 1 Z " fill="#69B42E" transform="translate(424,47)"/>
<path d="M0 0 C2 1 2 1 2 1 Z " fill="#EC9C3C" transform="translate(427,462)"/>
<path d="M0 0 C2 1 2 1 2 1 Z " fill="#E7A24E" transform="translate(79,461)"/>
<path d="M0 0 C2 1 2 1 2 1 Z " fill="#E19F52" transform="translate(432,460)"/>
<path d="M0 0 C2 1 2 1 2 1 Z " fill="#E0A35C" transform="translate(434,459)"/>
<path d="" fill="#F19F3B" transform="translate(0,0)"/>
<path d="M0 0 C2 1 2 1 2 1 Z " fill="#F19C30" transform="translate(437,457)"/>
<path d="M0 0 C2 1 2 1 2 1 Z " fill="#D99848" transform="translate(439,456)"/>
<path d="M0 0 C2 1 2 1 2 1 Z " fill="#099FE2" transform="translate(58,445)"/>
<path d="" fill="#F2A94C" transform="translate(0,0)"/>
<path d="" fill="#0CA5EC" transform="translate(0,0)"/>
<path d="" fill="#0C9BE2" transform="translate(0,0)"/>
<path d="" fill="#0AA2EA" transform="translate(0,0)"/>
<path d="" fill="#FBA74A" transform="translate(0,0)"/>
<path d="M0 0 C2 1 2 1 2 1 Z " fill="#ED9439" transform="translate(94,440)"/>
<path d="" fill="#04A9EB" transform="translate(0,0)"/>
<path d="" fill="#069DE9" transform="translate(0,0)"/>
<path d="" fill="#EFB256" transform="translate(0,0)"/>
<path d="M0 0 C2 1 2 1 2 1 Z " fill="#F67B41" transform="translate(98,437)"/>
<path d="" fill="#04A1ED" transform="translate(0,0)"/>
<path d="" fill="#049AE5" transform="translate(0,0)"/>
<path d="" fill="#FA9C30" transform="translate(0,0)"/>
<path d="" fill="#03B5F7" transform="translate(0,0)"/>
<path d="M0 0 C2 1 2 1 2 1 Z " fill="#E7A745" transform="translate(102,434)"/>
<path d="" fill="#098ED0" transform="translate(0,0)"/>
<path d="" fill="#FD962B" transform="translate(0,0)"/>
<path d="M0 0 C2 1 2 1 2 1 Z " fill="#EDAE44" transform="translate(105,432)"/>
<path d="" fill="#0598E1" transform="translate(0,0)"/>
<path d="" fill="#F8A730" transform="translate(0,0)"/>
<path d="M0 0 C2 1 2 1 2 1 Z " fill="#D29B4B" transform="translate(108,430)"/>
<path d="" fill="#ECA749" transform="translate(0,0)"/>
<path d="M0 0 C2 1 2 1 2 1 Z " fill="#F89B34" transform="translate(110,429)"/>
<path d="" fill="#0699E3" transform="translate(0,0)"/>
<path d="M0 0 C2 1 2 1 2 1 Z " fill="#EFA84A" transform="translate(113,427)"/>
<path d="M0 0 C2 1 2 1 2 1 Z " fill="#FAA33A" transform="translate(115,426)"/>
<path d="M0 0 C2 1 2 1 2 1 Z " fill="#E3AB5E" transform="translate(120,423)"/>
<path d="" fill="#039DE4" transform="translate(0,0)"/>
<path d="M0 0 C2 1 2 1 2 1 Z " fill="#DFA75B" transform="translate(122,422)"/>
<path d="M0 0 C2 1 2 1 2 1 Z " fill="#E2A757" transform="translate(124,421)"/>
<path d="M0 0 C2 1 2 1 2 1 Z " fill="#E3A855" transform="translate(126,420)"/>
<path d="M0 0 C2 1 2 1 2 1 Z " fill="#E0A757" transform="translate(128,419)"/>
<path d="M0 0 C2 1 2 1 2 1 Z " fill="#E3A660" transform="translate(130,418)"/>
<path d="M0 0 C2 1 2 1 2 1 Z " fill="#F6A42B" transform="translate(135,416)"/>
<path d="M0 0 C2 1 2 1 2 1 Z " fill="#E7A441" transform="translate(137,415)"/>
<path d="M0 0 C2 1 2 1 2 1 Z " fill="#F2A23A" transform="translate(142,413)"/>
<path d="M0 0 C2 1 2 1 2 1 Z " fill="#EFA743" transform="translate(147,411)"/>
<path d="M0 0 C2 1 2 1 2 1 Z " fill="#FAAD4B" transform="translate(158,407)"/>
<path d="M0 0 C2 1 2 1 2 1 Z " fill="#F4AD48" transform="translate(161,406)"/>
<path d="M0 0 C2 1 2 1 2 1 Z " fill="#03A4E9" transform="translate(110,387)"/>
<path d="M0 0 C2 1 2 1 2 1 Z " fill="#0594DB" transform="translate(113,385)"/>
<path d="M0 0 C2 1 2 1 2 1 Z " fill="#0594D7" transform="translate(116,383)"/>
<path d="M0 0 C2 1 2 1 2 1 Z " fill="#0495DA" transform="translate(119,381)"/>
<path d="M0 0 C2 1 2 1 2 1 Z " fill="#0592D6" transform="translate(122,379)"/>
<path d="M0 0 C2 1 2 1 2 1 Z " fill="#0493DA" transform="translate(125,377)"/>
<path d="M0 0 C2 1 2 1 2 1 Z " fill="#039AE4" transform="translate(128,375)"/>
<path d="M0 0 C2 1 2 1 2 1 Z " fill="#0493D6" transform="translate(130,374)"/>
<path d="M0 0 C2 1 2 1 2 1 Z " fill="#029AE6" transform="translate(133,372)"/>
<path d="M0 0 C2 1 2 1 2 1 Z " fill="#0696DD" transform="translate(135,371)"/>
<path d="M0 0 C2 1 2 1 2 1 Z " fill="#02B9EE" transform="translate(138,369)"/>
<path d="M0 0 C2 1 2 1 2 1 Z " fill="#0398E0" transform="translate(140,368)"/>
<path d="M0 0 C2 1 2 1 2 1 Z " fill="#049CE7" transform="translate(142,367)"/>
<path d="M0 0 C2 1 2 1 2 1 Z " fill="#0399E2" transform="translate(144,366)"/>
<path d="M0 0 C2 1 2 1 2 1 Z " fill="#0797DE" transform="translate(146,365)"/>
<path d="M0 0 C2 1 2 1 2 1 Z " fill="#0896DA" transform="translate(148,364)"/>
<path d="M0 0 C2 1 2 1 2 1 Z " fill="#0798D8" transform="translate(150,363)"/>
<path d="M0 0 C2 1 2 1 2 1 Z " fill="#0797DB" transform="translate(152,362)"/>
<path d="M0 0 C2 1 2 1 2 1 Z " fill="#EE9E3A" transform="translate(416,361)"/>
<path d="M0 0 C2 1 2 1 2 1 Z " fill="#0795D8" transform="translate(154,361)"/>
<path d="M0 0 C2 1 2 1 2 1 Z " fill="#0597DE" transform="translate(156,360)"/>
<path d="M0 0 C2 1 2 1 2 1 Z " fill="#FAAF36" transform="translate(421,359)"/>
<path d="M0 0 C2 1 2 1 2 1 Z " fill="#0598DF" transform="translate(158,359)"/>
<path d="M0 0 C2 1 2 1 2 1 Z " fill="#F3A446" transform="translate(423,358)"/>
<path d="M0 0 C2 1 2 1 2 1 Z " fill="#0498E2" transform="translate(160,358)"/>
<path d="M0 0 C2 1 2 1 2 1 Z " fill="#E1A657" transform="translate(425,357)"/>
<path d="M0 0 C2 1 2 1 2 1 Z " fill="#049DE7" transform="translate(162,357)"/>
<path d="M0 0 C2 1 2 1 2 1 Z " fill="#D9A35F" transform="translate(427,356)"/>
<path d="M0 0 C2 1 2 1 2 1 Z " fill="#039EE7" transform="translate(164,356)"/>
<path d="M0 0 C2 1 2 1 2 1 Z " fill="#D4A15F" transform="translate(429,355)"/>
<path d="M0 0 C2 1 2 1 2 1 Z " fill="#D3A15E" transform="translate(431,354)"/>
<path d="M0 0 C2 1 2 1 2 1 Z " fill="#0494D7" transform="translate(169,354)"/>
<path d="M0 0 C2 1 2 1 2 1 Z " fill="#D39B4D" transform="translate(433,353)"/>
<path d="M0 0 C2 1 2 1 2 1 Z " fill="#0697DE" transform="translate(171,353)"/>
<path d="M0 0 C2 1 2 1 2 1 Z " fill="#EDAC48" transform="translate(435,352)"/>
<path d="M0 0 C2 1 2 1 2 1 Z " fill="#039AE5" transform="translate(173,352)"/>
<path d="M0 0 C2 1 2 1 2 1 Z " fill="#F58130" transform="translate(437,351)"/>
<path d="M0 0 C2 1 2 1 2 1 Z " fill="#0491D6" transform="translate(176,351)"/>
<path d="M0 0 C2 1 2 1 2 1 Z " fill="#039CE5" transform="translate(178,350)"/>
<path d="M0 0 C2 1 2 1 2 1 Z " fill="#EEAF49" transform="translate(440,349)"/>
<path d="M0 0 C2 1 2 1 2 1 Z " fill="#0798E0" transform="translate(183,348)"/>
<path d="M0 0 C2 1 2 1 2 1 Z " fill="#ECAA4A" transform="translate(443,347)"/>
<path d="M0 0 C2 1 2 1 2 1 Z " fill="#0695DA" transform="translate(188,346)"/>
<path d="M0 0 C2 1 2 1 2 1 Z " fill="#0597DE" transform="translate(196,343)"/>
<path d="M0 0 C2 1 2 1 2 1 Z " fill="#0696DE" transform="translate(352,299)"/>
<path d="M0 0 C2 1 2 1 2 1 Z " fill="#0695DB" transform="translate(360,296)"/>
<path d="M0 0 C2 1 2 1 2 1 Z " fill="#03A2EB" transform="translate(362,295)"/>
<path d="M0 0 C2 1 2 1 2 1 Z " fill="#0594DA" transform="translate(367,293)"/>
<path d="M0 0 C2 1 2 1 2 1 Z " fill="#0495DB" transform="translate(369,292)"/>
<path d="M0 0 C2 1 2 1 2 1 Z " fill="#0597E5" transform="translate(371,291)"/>
<path d="M0 0 C2 1 2 1 2 1 Z " fill="#0598DF" transform="translate(373,290)"/>
<path d="M0 0 C2 1 2 1 2 1 Z " fill="#0397E1" transform="translate(375,289)"/>
<path d="M0 0 C2 1 2 1 2 1 Z " fill="#03B1EC" transform="translate(378,287)"/>
<path d="M0 0 C2 1 2 1 2 1 Z " fill="#0698DD" transform="translate(380,286)"/>
<path d="M0 0 C2 1 2 1 2 1 Z " fill="#03B5EB" transform="translate(384,283)"/>
<path d="" fill="#0699E2" transform="translate(0,0)"/>
<path d="" fill="#0698DF" transform="translate(0,0)"/>
<path d="" fill="#03A6F1" transform="translate(0,0)"/>
<path d="M0 0 C2 1 2 1 2 1 Z " fill="#0692D8" transform="translate(159,273)"/>
<path d="M0 0 C2 1 2 1 2 1 Z " fill="#02A4EE" transform="translate(107,272)"/>
<path d="M0 0 C2 1 2 1 2 1 Z " fill="#0597E0" transform="translate(154,271)"/>
<path d="M0 0 C2 1 2 1 2 1 Z " fill="#0494DB" transform="translate(149,269)"/>
<path d="M0 0 C2 1 2 1 2 1 Z " fill="#029BE8" transform="translate(99,269)"/>
<path d="M0 0 C2 1 2 1 2 1 Z " fill="#049FEA" transform="translate(147,268)"/>
<path d="" fill="#0E85BC" transform="translate(0,0)"/>
<path d="M0 0 C2 1 2 1 2 1 Z " fill="#03AEEE" transform="translate(145,267)"/>
<path d="M0 0 C2 1 2 1 2 1 Z " fill="#04A4F0" transform="translate(94,267)"/>
<path d="M0 0 C2 1 2 1 2 1 Z " fill="#03CAEE" transform="translate(143,266)"/>
<path d="M0 0 C2 1 2 1 2 1 Z " fill="#04A0EB" transform="translate(92,266)"/>
<path d="M0 0 C2 1 2 1 2 1 Z " fill="#02ACED" transform="translate(141,265)"/>
<path d="M0 0 C2 1 2 1 2 1 Z " fill="#0397DD" transform="translate(90,265)"/>
<path d="M0 0 C2 1 2 1 2 1 Z " fill="#02A8ED" transform="translate(139,264)"/>
<path d="M0 0 C2 1 2 1 2 1 Z " fill="#0599DA" transform="translate(88,264)"/>
<path d="M0 0 C2 1 2 1 2 1 Z " fill="#0499E4" transform="translate(137,263)"/>
<path d="M0 0 C2 1 2 1 2 1 Z " fill="#0395E0" transform="translate(86,263)"/>
<path d="M0 0 C2 1 2 1 2 1 Z " fill="#0594D9" transform="translate(135,262)"/>
<path d="M0 0 C2 1 2 1 2 1 Z " fill="#01A3EE" transform="translate(84,262)"/>
<path d="" fill="#0594DD" transform="translate(0,0)"/>
<path d="M0 0 C2 1 2 1 2 1 Z " fill="#02A4EB" transform="translate(82,261)"/>
<path d="M0 0 C2 1 2 1 2 1 Z " fill="#039FE3" transform="translate(132,260)"/>
<path d="M0 0 C2 1 2 1 2 1 Z " fill="#0198DF" transform="translate(79,259)"/>
<path d="" fill="#0199E4" transform="translate(0,0)"/>
<path d="M0 0 C2 1 2 1 2 1 Z " fill="#02C7F0" transform="translate(77,258)"/>
<path d="M0 0 C2 1 2 1 2 1 Z " fill="#029CE1" transform="translate(444,256)"/>
<path d="M0 0 C2 1 2 1 2 1 Z " fill="#01CBEF" transform="translate(74,256)"/>
<path d="M0 0 C2 1 2 1 2 1 Z " fill="#0396DE" transform="translate(440,253)"/>
<path d="M0 0 C2 1 2 1 2 1 Z " fill="#0490D4" transform="translate(437,251)"/>
<path d="M0 0 C2 1 2 1 2 1 Z " fill="#04BBF1" transform="translate(385,251)"/>
<path d="" fill="#0297E0" transform="translate(0,0)"/>
<path d="M0 0 C2 1 2 1 2 1 Z " fill="#0399E1" transform="translate(434,249)"/>
<path d="M0 0 C2 1 2 1 2 1 Z " fill="#01A3E7" transform="translate(381,248)"/>
<path d="M0 0 C2 1 2 1 2 1 Z " fill="#03A0EB" transform="translate(431,247)"/>
<path d="M0 0 C2 1 2 1 2 1 Z " fill="#0692D5" transform="translate(429,246)"/>
<path d="M0 0 C2 1 2 1 2 1 Z " fill="#02A5EF" transform="translate(378,246)"/>
<path d="M0 0 C2 1 2 1 2 1 Z " fill="#078ED0" transform="translate(427,245)"/>
<path d="M0 0 C2 1 2 1 2 1 Z " fill="#02B9F5" transform="translate(376,245)"/>
<path d="M0 0 C2 1 2 1 2 1 Z " fill="#048CCD" transform="translate(425,244)"/>
<path d="M0 0 C2 1 2 1 2 1 Z " fill="#048CCF" transform="translate(423,243)"/>
<path d="M0 0 C2 1 2 1 2 1 Z " fill="#0398DF" transform="translate(373,243)"/>
<path d="M0 0 C2 1 2 1 2 1 Z " fill="#048ED1" transform="translate(421,242)"/>
<path d="M0 0 C2 1 2 1 2 1 Z " fill="#0299E2" transform="translate(371,242)"/>
<path d="M0 0 C2 1 2 1 2 1 Z " fill="#0693D9" transform="translate(419,241)"/>
<path d="M0 0 C2 1 2 1 2 1 Z " fill="#0294D9" transform="translate(369,241)"/>
<path d="M0 0 C2 1 2 1 2 1 Z " fill="#0395DD" transform="translate(417,240)"/>
<path d="M0 0 C2 1 2 1 2 1 Z " fill="#02AFF5" transform="translate(364,239)"/>
<path d="M0 0 C2 1 2 1 2 1 Z " fill="#0593DC" transform="translate(412,238)"/>
<path d="M0 0 C2 1 2 1 2 1 Z " fill="#049EEB" transform="translate(362,238)"/>
<path d="" fill="#01A7EB" transform="translate(0,0)"/>
<path d="M0 0 C2 1 2 1 2 1 Z " fill="#02A1ED" transform="translate(357,236)"/>
<path d="" fill="#039BEA" transform="translate(0,0)"/>
<path d="" fill="#049FE6" transform="translate(0,0)"/>
<path d="M0 0 C2 1 2 1 2 1 Z " fill="#05A4EC" transform="translate(346,232)"/>
<path d="" fill="#069BE6" transform="translate(0,0)"/>
<path d="M0 0 C2 1 2 1 2 1 Z " fill="#06A3ED" transform="translate(343,231)"/>
<path d="" fill="#039DEB" transform="translate(0,0)"/>
<path d="M0 0 C2 1 2 1 2 1 Z " fill="#0396E0" transform="translate(129,224)"/>
<path d="M0 0 C2 1 2 1 2 1 Z " fill="#02A5E6" transform="translate(132,222)"/>
<path d="M0 0 C2 1 2 1 2 1 Z " fill="#0598E0" transform="translate(135,220)"/>
<path d="M0 0 C2 1 2 1 2 1 Z " fill="#04AEEE" transform="translate(137,219)"/>
<path d="M0 0 C2 1 2 1 2 1 Z " fill="#03A8F6" transform="translate(139,218)"/>
<path d="M0 0 C2 1 2 1 2 1 Z " fill="#05B4F7" transform="translate(141,217)"/>
<path d="M0 0 C2 1 2 1 2 1 Z " fill="#05C1F7" transform="translate(143,216)"/>
<path d="M0 0 C2 1 2 1 2 1 Z " fill="#04A8F1" transform="translate(145,215)"/>
<path d="M0 0 C2 1 2 1 2 1 Z " fill="#06A5EE" transform="translate(147,214)"/>
<path d="M0 0 C2 1 2 1 2 1 Z " fill="#06A4F4" transform="translate(152,212)"/>
<path d="M0 0 C2 1 2 1 2 1 Z " fill="#05ACF6" transform="translate(157,210)"/>
<path d="M0 0 C2 1 2 1 2 1 Z " fill="#06A0E9" transform="translate(162,208)"/>
<path d="M0 0 C2 1 2 1 2 1 Z " fill="#05A3EE" transform="translate(165,207)"/>
<path d="" fill="#9ADD65" transform="translate(0,0)"/>
<path d="" fill="#6EE12B" transform="translate(0,0)"/>
<path d="" fill="#67D538" transform="translate(0,0)"/>
<path d="M0 0 C2 1 2 1 2 1 Z " fill="#05A7F3" transform="translate(313,166)"/>
<path d="M0 0 C2 1 2 1 2 1 Z " fill="#06A5F1" transform="translate(321,163)"/>
<path d="M0 0 C2 1 2 1 2 1 Z " fill="#67B138" transform="translate(67,163)"/>
<path d="M0 0 C2 1 2 1 2 1 Z " fill="#079CE5" transform="translate(326,161)"/>
<path d="M0 0 C2 1 2 1 2 1 Z " fill="#3ECF28" transform="translate(71,160)"/>
<path d="M0 0 C2 1 2 1 2 1 Z " fill="#08A3EA" transform="translate(331,159)"/>
<path d="M0 0 C2 1 2 1 2 1 Z " fill="#75B344" transform="translate(73,159)"/>
<path d="M0 0 C2 1 2 1 2 1 Z " fill="#05A5EB" transform="translate(336,157)"/>
<path d="M0 0 C2 1 2 1 2 1 Z " fill="#6AC52F" transform="translate(76,157)"/>
<path d="M0 0 C2 1 2 1 2 1 Z " fill="#79B847" transform="translate(78,156)"/>
<path d="M0 0 C2 1 2 1 2 1 Z " fill="#05A8F3" transform="translate(341,155)"/>
<path d="M0 0 C2 1 2 1 2 1 Z " fill="#83BB57" transform="translate(80,155)"/>
<path d="M0 0 C2 1 2 1 2 1 Z " fill="#08A9EF" transform="translate(343,154)"/>
<path d="M0 0 C2 1 2 1 2 1 Z " fill="#0898E1" transform="translate(345,153)"/>
<path d="M0 0 C2 1 2 1 2 1 Z " fill="#05A4F2" transform="translate(350,151)"/>
<path d="M0 0 C2 1 2 1 2 1 Z " fill="#7BB74B" transform="translate(88,151)"/>
<path d="M0 0 C2 1 2 1 2 1 Z " fill="#07ACF0" transform="translate(352,150)"/>
<path d="M0 0 C2 1 2 1 2 1 Z " fill="#6AB132" transform="translate(90,150)"/>
<path d="M0 0 C2 1 2 1 2 1 Z " fill="#07A2E8" transform="translate(354,149)"/>
<path d="M0 0 C2 1 2 1 2 1 Z " fill="#6ABC29" transform="translate(92,149)"/>
<path d="M0 0 C2 1 2 1 2 1 Z " fill="#089EE8" transform="translate(356,148)"/>
<path d="M0 0 C2 1 2 1 2 1 Z " fill="#089CE8" transform="translate(358,147)"/>
<path d="M0 0 C2 1 2 1 2 1 Z " fill="#64AF29" transform="translate(97,147)"/>
<path d="M0 0 C2 1 2 1 2 1 Z " fill="#079CE7" transform="translate(360,146)"/>
<path d="M0 0 C2 1 2 1 2 1 Z " fill="#089EE9" transform="translate(362,145)"/>
<path d="M0 0 C2 1 2 1 2 1 Z " fill="#0A9CE7" transform="translate(364,144)"/>
<path d="M0 0 C2 1 2 1 2 1 Z " fill="#09A0E7" transform="translate(366,143)"/>
<path d="M0 0 C2 1 2 1 2 1 Z " fill="#069EEC" transform="translate(368,142)"/>
<path d="M0 0 C2 1 2 1 2 1 Z " fill="#07A9F1" transform="translate(370,141)"/>
<path d="M0 0 C2 1 2 1 2 1 Z " fill="#04B9F6" transform="translate(372,140)"/>
<path d="M0 0 C2 1 2 1 2 1 Z " fill="#049BE5" transform="translate(375,138)"/>
<path d="M0 0 C2 1 2 1 2 1 Z " fill="#069FEA" transform="translate(377,137)"/>
<path d="M0 0 C2 1 2 1 2 1 Z " fill="#05B2F5" transform="translate(379,136)"/>
<path d="M0 0 C2 1 2 1 2 1 Z " fill="#0697E0" transform="translate(382,134)"/>
<path d="M0 0 C2 1 2 1 2 1 Z " fill="#04AEF0" transform="translate(384,133)"/>
<path d="M0 0 C2 1 2 1 2 1 Z " fill="#06A0EA" transform="translate(387,131)"/>
<path d="M0 0 C2 1 2 1 2 1 Z " fill="#0791D4" transform="translate(390,129)"/>
<path d="M0 0 C2 1 2 1 2 1 Z " fill="#03A6F3" transform="translate(392,128)"/>
<path d="M0 0 C2 1 2 1 2 1 Z " fill="#05A0EE" transform="translate(399,123)"/>
<path d="M0 0 C2 1 2 1 2 1 Z " fill="#01AEEC" transform="translate(402,121)"/>
<path d="M0 0 C2 1 2 1 2 1 Z " fill="#03AAE9" transform="translate(406,118)"/>
<path d="M0 0 C2 1 2 1 2 1 Z " fill="#02A0E8" transform="translate(411,114)"/>
<path d="M0 0 C2 1 2 1 2 1 Z " fill="#6AB72E" transform="translate(355,101)"/>
<path d="M0 0 C2 1 2 1 2 1 Z " fill="#62AE27" transform="translate(366,97)"/>
<path d="M0 0 C2 1 2 1 2 1 Z " fill="#67B429" transform="translate(371,95)"/>
<path d="M0 0 C2 1 2 1 2 1 Z " fill="#75BB3B" transform="translate(376,93)"/>
<path d="M0 0 C2 1 2 1 2 1 Z " fill="#5EB81D" transform="translate(378,92)"/>
<path d="M0 0 C2 1 2 1 2 1 Z " fill="#3AB51E" transform="translate(380,91)"/>
<path d="M0 0 C2 1 2 1 2 1 Z " fill="#6FA843" transform="translate(383,90)"/>
<path d="" fill="#029CE8" transform="translate(0,0)"/>
<path d="M0 0 C2 1 2 1 2 1 Z " fill="#6CA53F" transform="translate(385,89)"/>
<path d="M0 0 C2 1 2 1 2 1 Z " fill="#69A43A" transform="translate(387,88)"/>
<path d="M0 0 C2 1 2 1 2 1 Z " fill="#6BA73C" transform="translate(389,87)"/>
<path d="M0 0 C2 1 2 1 2 1 Z " fill="#6EA742" transform="translate(391,86)"/>
<path d="" fill="#0399E3" transform="translate(0,0)"/>
<path d="M0 0 C2 1 2 1 2 1 Z " fill="#42BD22" transform="translate(396,83)"/>
<path d="" fill="#05A4F2" transform="translate(0,0)"/>
<path d="" fill="#0392DA" transform="translate(0,0)"/>
<path d="M0 0 C2 1 2 1 2 1 Z " fill="#6FC42B" transform="translate(398,82)"/>
<path d="M0 0 C2 1 2 1 2 1 Z " fill="#72AB46" transform="translate(400,81)"/>
<path d="" fill="#05B3F8" transform="translate(0,0)"/>
<path d="" fill="#6ABB2C" transform="translate(0,0)"/>
<path d="" fill="#0194DE" transform="translate(0,0)"/>
<path d="M0 0 C2 1 2 1 2 1 Z " fill="#63BC25" transform="translate(403,79)"/>
<path d="" fill="#03AEF6" transform="translate(0,0)"/>
<path d="" fill="#65BE29" transform="translate(0,0)"/>
<path d="M0 0 C2 1 2 1 2 1 Z " fill="#43C12C" transform="translate(406,77)"/>
<path d="" fill="#07B1F4" transform="translate(0,0)"/>
<path d="" fill="#0198E5" transform="translate(0,0)"/>
<path d="M0 0 C2 1 2 1 2 1 Z " fill="#6FAB3F" transform="translate(408,76)"/>
<path d="" fill="#6CBF30" transform="translate(0,0)"/>
<path d="" fill="#04AEF3" transform="translate(0,0)"/>
<path d="" fill="#0294DE" transform="translate(0,0)"/>
<path d="" fill="#80BC4F" transform="translate(0,0)"/>
<path d="M0 0 C2 1 2 1 2 1 Z " fill="#47CE29" transform="translate(412,73)"/>
<path d="" fill="#089EE2" transform="translate(0,0)"/>
<path d="" fill="#00C2ED" transform="translate(0,0)"/>
<path d="M0 0 C2 1 2 1 2 1 Z " fill="#79BF42" transform="translate(415,71)"/>
<path d="" fill="#76C048" transform="translate(0,0)"/>
<path d="M0 0 C2 1 2 1 2 1 Z " fill="#84D849" transform="translate(66,57)"/>
<path d="" fill="#86E636" transform="translate(0,0)"/>
<path d="M0 0 C2 1 2 1 2 1 Z " fill="#74AD46" transform="translate(70,54)"/>
<path d="M0 0 C2 1 2 1 2 1 Z " fill="#5EDD2B" transform="translate(72,53)"/>
<path d="M0 0 C2 1 2 1 2 1 Z " fill="#7FBD50" transform="translate(75,51)"/>
<path d="M0 0 C2 1 2 1 2 1 Z " fill="#83D049" transform="translate(432,50)"/>
<path d="M0 0 C2 1 2 1 2 1 Z " fill="#83C352" transform="translate(77,50)"/>
<path d="M0 0 C2 1 2 1 2 1 Z " fill="#72B33F" transform="translate(430,49)"/>
<path d="M0 0 C2 1 2 1 2 1 Z " fill="#6CC624" transform="translate(82,48)"/>
<path d="" fill="#FFB030" transform="translate(0,0)"/>
<path d="" fill="#FF9D1F" transform="translate(0,0)"/>
<path d="" fill="#ECA34B" transform="translate(0,0)"/>
<path d="" fill="#FFA93F" transform="translate(0,0)"/>
<path d="" fill="#E3A153" transform="translate(0,0)"/>
<path d="" fill="#FDA439" transform="translate(0,0)"/>
<path d="" fill="#FB9E32" transform="translate(0,0)"/>
<path d="" fill="#EE8F20" transform="translate(0,0)"/>
<path d="" fill="#F1911F" transform="translate(0,0)"/>
<path d="" fill="#F1911E" transform="translate(0,0)"/>
<path d="" fill="#E8A24E" transform="translate(0,0)"/>
<path d="" fill="#F1911E" transform="translate(0,0)"/>
<path d="" fill="#FDAE4F" transform="translate(0,0)"/>
<path d="" fill="#EB8C1B" transform="translate(0,0)"/>
<path d="" fill="#FFAF4C" transform="translate(0,0)"/>
<path d="" fill="#FFA538" transform="translate(0,0)"/>
<path d="" fill="#FDAD4B" transform="translate(0,0)"/>
<path d="" fill="#FFBA51" transform="translate(0,0)"/>
<path d="" fill="#FBAC4D" transform="translate(0,0)"/>
<path d="" fill="#FCA948" transform="translate(0,0)"/>
<path d="" fill="#F2AA54" transform="translate(0,0)"/>
<path d="" fill="#F4AA52" transform="translate(0,0)"/>
<path d="" fill="#EAAF6A" transform="translate(0,0)"/>
<path d="" fill="#F2B46A" transform="translate(0,0)"/>
<path d="" fill="#1495D2" transform="translate(0,0)"/>
<path d="" fill="#FF971A" transform="translate(0,0)"/>
<path d="" fill="#FFA535" transform="translate(0,0)"/>
<path d="" fill="#FEAE4E" transform="translate(0,0)"/>
<path d="" fill="#EFA855" transform="translate(0,0)"/>
<path d="" fill="#059EEB" transform="translate(0,0)"/>
<path d="" fill="#FF9C10" transform="translate(0,0)"/>
<path d="" fill="#FBAC4B" transform="translate(0,0)"/>
<path d="" fill="#F8A643" transform="translate(0,0)"/>
<path d="" fill="#029BEB" transform="translate(0,0)"/>
<path d="" fill="#FFAB2B" transform="translate(0,0)"/>
<path d="" fill="#FFB560" transform="translate(0,0)"/>
<path d="" fill="#0796E0" transform="translate(0,0)"/>
<path d="" fill="#FFB650" transform="translate(0,0)"/>
<path d="" fill="#04A1EE" transform="translate(0,0)"/>
<path d="" fill="#EDA146" transform="translate(0,0)"/>
<path d="" fill="#FEA73A" transform="translate(0,0)"/>
<path d="" fill="#0496E2" transform="translate(0,0)"/>
<path d="" fill="#04A0ED" transform="translate(0,0)"/>
<path d="" fill="#07A0EB" transform="translate(0,0)"/>
<path d="" fill="#01A2EF" transform="translate(0,0)"/>
<path d="" fill="#03A5F3" transform="translate(0,0)"/>
<path d="" fill="#079BE6" transform="translate(0,0)"/>
<path d="" fill="#0898E0" transform="translate(0,0)"/>
<path d="" fill="#029EEF" transform="translate(0,0)"/>
<path d="" fill="#03A0E8" transform="translate(0,0)"/>
<path d="" fill="#059FE5" transform="translate(0,0)"/>
<path d="" fill="#05A1F3" transform="translate(0,0)"/>
<path d="" fill="#049AEC" transform="translate(0,0)"/>
<path d="" fill="#049CF4" transform="translate(0,0)"/>
<path d="" fill="#0694D8" transform="translate(0,0)"/>
<path d="" fill="#0796DE" transform="translate(0,0)"/>
<path d="" fill="#02A1F2" transform="translate(0,0)"/>
<path d="" fill="#02A2F1" transform="translate(0,0)"/>
<path d="" fill="#059AE0" transform="translate(0,0)"/>
<path d="" fill="#039DEA" transform="translate(0,0)"/>
<path d="" fill="#049AE4" transform="translate(0,0)"/>
<path d="" fill="#02A2F3" transform="translate(0,0)"/>
<path d="" fill="#049EEA" transform="translate(0,0)"/>
<path d="" fill="#0798DE" transform="translate(0,0)"/>
<path d="" fill="#089DE1" transform="translate(0,0)"/>
<path d="" fill="#0699DF" transform="translate(0,0)"/>
<path d="" fill="#0694D9" transform="translate(0,0)"/>
<path d="" fill="#0596DB" transform="translate(0,0)"/>
<path d="" fill="#059BE2" transform="translate(0,0)"/>
<path d="" fill="#0599DF" transform="translate(0,0)"/>
<path d="" fill="#F9A33E" transform="translate(0,0)"/>
<path d="" fill="#FFB961" transform="translate(0,0)"/>
<path d="" fill="#FFB352" transform="translate(0,0)"/>
<path d="" fill="#F39A30" transform="translate(0,0)"/>
<path d="" fill="#F2AB55" transform="translate(0,0)"/>
<path d="" fill="#EEB776" transform="translate(0,0)"/>
<path d="" fill="#F4B668" transform="translate(0,0)"/>
<path d="" fill="#F0A141" transform="translate(0,0)"/>
<path d="" fill="#FF9C21" transform="translate(0,0)"/>
<path d="" fill="#D7B795" transform="translate(0,0)"/>
<path d="" fill="#E3B17A" transform="translate(0,0)"/>
<path d="" fill="#F5C58E" transform="translate(0,0)"/>
<path d="" fill="#059BE5" transform="translate(0,0)"/>
<path d="" fill="#079BE2" transform="translate(0,0)"/>
<path d="" fill="#02AAFC" transform="translate(0,0)"/>
<path d="" fill="#049DE4" transform="translate(0,0)"/>
<path d="" fill="#069EE8" transform="translate(0,0)"/>
<path d="" fill="#03AAFF" transform="translate(0,0)"/>
<path d="" fill="#00AFFF" transform="translate(0,0)"/>
<path d="" fill="#04A7FC" transform="translate(0,0)"/>
<path d="" fill="#069FEC" transform="translate(0,0)"/>
<path d="" fill="#13ADFC" transform="translate(0,0)"/>
<path d="" fill="#0599DE" transform="translate(0,0)"/>
<path d="" fill="#11ABF0" transform="translate(0,0)"/>
<path d="" fill="#149CDD" transform="translate(0,0)"/>
<path d="" fill="#0598E1" transform="translate(0,0)"/>
<path d="" fill="#03A1EF" transform="translate(0,0)"/>
<path d="" fill="#049AE0" transform="translate(0,0)"/>
<path d="" fill="#0694D9" transform="translate(0,0)"/>
<path d="" fill="#0895DA" transform="translate(0,0)"/>
<path d="" fill="#0994D6" transform="translate(0,0)"/>
<path d="" fill="#0993D4" transform="translate(0,0)"/>
<path d="" fill="#0896D8" transform="translate(0,0)"/>
<path d="" fill="#0698E0" transform="translate(0,0)"/>
<path d="" fill="#0795DA" transform="translate(0,0)"/>
<path d="" fill="#02A9FA" transform="translate(0,0)"/>
<path d="" fill="#0593DC" transform="translate(0,0)"/>
<path d="" fill="#02A4F4" transform="translate(0,0)"/>
<path d="" fill="#0595DE" transform="translate(0,0)"/>
<path d="" fill="#059CE8" transform="translate(0,0)"/>
<path d="" fill="#01A8FA" transform="translate(0,0)"/>
<path d="" fill="#00ACFF" transform="translate(0,0)"/>
<path d="" fill="#03A1F5" transform="translate(0,0)"/>
<path d="" fill="#0493DA" transform="translate(0,0)"/>
<path d="" fill="#0391D6" transform="translate(0,0)"/>
<path d="" fill="#04A0E7" transform="translate(0,0)"/>
<path d="" fill="#059BE6" transform="translate(0,0)"/>
<path d="" fill="#01A2F4" transform="translate(0,0)"/>
<path d="" fill="#039CE7" transform="translate(0,0)"/>
<path d="" fill="#0694E3" transform="translate(0,0)"/>
<path d="" fill="#01A0ED" transform="translate(0,0)"/>
<path d="" fill="#039FEE" transform="translate(0,0)"/>
<path d="" fill="#0695E1" transform="translate(0,0)"/>
<path d="" fill="#039DEC" transform="translate(0,0)"/>
<path d="" fill="#0594DC" transform="translate(0,0)"/>
<path d="" fill="#05A1E2" transform="translate(0,0)"/>
<path d="" fill="#0595DE" transform="translate(0,0)"/>
<path d="" fill="#0391D6" transform="translate(0,0)"/>
<path d="" fill="#03A1F6" transform="translate(0,0)"/>
<path d="" fill="#0596DF" transform="translate(0,0)"/>
<path d="" fill="#03AEFF" transform="translate(0,0)"/>
<path d="" fill="#029EF2" transform="translate(0,0)"/>
<path d="" fill="#039FEC" transform="translate(0,0)"/>
<path d="" fill="#039FE9" transform="translate(0,0)"/>
<path d="" fill="#0597E1" transform="translate(0,0)"/>
<path d="" fill="#0392DB" transform="translate(0,0)"/>
<path d="" fill="#0599E0" transform="translate(0,0)"/>
<path d="" fill="#029DE9" transform="translate(0,0)"/>
<path d="" fill="#04A3F3" transform="translate(0,0)"/>
<path d="" fill="#0898E0" transform="translate(0,0)"/>
<path d="" fill="#059CE7" transform="translate(0,0)"/>
<path d="" fill="#02A8FA" transform="translate(0,0)"/>
<path d="" fill="#019FEF" transform="translate(0,0)"/>
<path d="" fill="#04A4F4" transform="translate(0,0)"/>
<path d="" fill="#03A2F0" transform="translate(0,0)"/>
<path d="" fill="#0595DE" transform="translate(0,0)"/>
<path d="" fill="#06A6F6" transform="translate(0,0)"/>
<path d="" fill="#0494DE" transform="translate(0,0)"/>
<path d="" fill="#039BE9" transform="translate(0,0)"/>
<path d="" fill="#00A6F9" transform="translate(0,0)"/>
<path d="" fill="#02A5F7" transform="translate(0,0)"/>
<path d="" fill="#0BA7F6" transform="translate(0,0)"/>
<path d="" fill="#04A0EF" transform="translate(0,0)"/>
<path d="" fill="#039CE6" transform="translate(0,0)"/>
<path d="" fill="#059BE5" transform="translate(0,0)"/>
<path d="" fill="#2DAEF9" transform="translate(0,0)"/>
<path d="" fill="#049FED" transform="translate(0,0)"/>
<path d="" fill="#07A3F1" transform="translate(0,0)"/>
<path d="" fill="#98CA71" transform="translate(0,0)"/>
<path d="" fill="#A3D27E" transform="translate(0,0)"/>
<path d="" fill="#84DC40" transform="translate(0,0)"/>
<path d="" fill="#79D530" transform="translate(0,0)"/>
<path d="" fill="#8BCD57" transform="translate(0,0)"/>
<path d="" fill="#5AD200" transform="translate(0,0)"/>
<path d="" fill="#60CB0B" transform="translate(0,0)"/>
<path d="" fill="#62C911" transform="translate(0,0)"/>
<path d="" fill="#60C80E" transform="translate(0,0)"/>
<path d="" fill="#5BCD00" transform="translate(0,0)"/>
<path d="" fill="#8DC95C" transform="translate(0,0)"/>
<path d="" fill="#6EBE2E" transform="translate(0,0)"/>
<path d="" fill="#79B848" transform="translate(0,0)"/>
<path d="" fill="#64C01A" transform="translate(0,0)"/>
<path d="" fill="#75B93F" transform="translate(0,0)"/>
<path d="" fill="#6CB731" transform="translate(0,0)"/>
<path d="" fill="#68B02E" transform="translate(0,0)"/>
<path d="" fill="#67B02E" transform="translate(0,0)"/>
<path d="" fill="#069AE4" transform="translate(0,0)"/>
<path d="" fill="#05A3F1" transform="translate(0,0)"/>
<path d="" fill="#07ABFE" transform="translate(0,0)"/>
<path d="" fill="#069EED" transform="translate(0,0)"/>
<path d="" fill="#06AAFA" transform="translate(0,0)"/>
<path d="" fill="#06A0ED" transform="translate(0,0)"/>
<path d="" fill="#04A5F6" transform="translate(0,0)"/>
<path d="" fill="#03A9FF" transform="translate(0,0)"/>
<path d="" fill="#059CE7" transform="translate(0,0)"/>
<path d="" fill="#02ACFF" transform="translate(0,0)"/>
<path d="" fill="#04A1EF" transform="translate(0,0)"/>
<path d="" fill="#0698DF" transform="translate(0,0)"/>
<path d="" fill="#04ABFD" transform="translate(0,0)"/>
<path d="" fill="#03AAFC" transform="translate(0,0)"/>
<path d="" fill="#059CE8" transform="translate(0,0)"/>
<path d="" fill="#0594DE" transform="translate(0,0)"/>
<path d="" fill="#04A6FB" transform="translate(0,0)"/>
<path d="" fill="#02B1FF" transform="translate(0,0)"/>
<path d="" fill="#04ACFF" transform="translate(0,0)"/>
<path d="" fill="#04AAFE" transform="translate(0,0)"/>
<path d="" fill="#04ACFF" transform="translate(0,0)"/>
<path d="" fill="#04ACFF" transform="translate(0,0)"/>
<path d="" fill="#04ACFF" transform="translate(0,0)"/>
<path d="" fill="#03ADFF" transform="translate(0,0)"/>
<path d="" fill="#04A5F2" transform="translate(0,0)"/>
<path d="" fill="#0299E3" transform="translate(0,0)"/>
<path d="" fill="#0493D7" transform="translate(0,0)"/>
<path d="" fill="#049AE3" transform="translate(0,0)"/>
<path d="" fill="#029EE7" transform="translate(0,0)"/>
<path d="" fill="#04A0EC" transform="translate(0,0)"/>
<path d="" fill="#039AE8" transform="translate(0,0)"/>
<path d="" fill="#02A1EF" transform="translate(0,0)"/>
<path d="" fill="#69B72B" transform="translate(0,0)"/>
<path d="" fill="#71BA38" transform="translate(0,0)"/>
<path d="" fill="#0697E0" transform="translate(0,0)"/>
<path d="" fill="#0494DC" transform="translate(0,0)"/>
<path d="" fill="#74BC3B" transform="translate(0,0)"/>
<path d="" fill="#6BBF29" transform="translate(0,0)"/>
<path d="" fill="#0297DE" transform="translate(0,0)"/>
<path d="" fill="#6CAE38" transform="translate(0,0)"/>
<path d="" fill="#64C319" transform="translate(0,0)"/>
<path d="" fill="#0194DF" transform="translate(0,0)"/>
<path d="" fill="#77C43A" transform="translate(0,0)"/>
<path d="" fill="#72B83C" transform="translate(0,0)"/>
<path d="" fill="#0AA1F0" transform="translate(0,0)"/>
<path d="" fill="#8AC55B" transform="translate(0,0)"/>
<path d="" fill="#06A6EE" transform="translate(0,0)"/>
<path d="" fill="#21E5FF" transform="translate(0,0)"/>
<path d="" fill="#6FC12D" transform="translate(0,0)"/>
<path d="" fill="#79BC44" transform="translate(0,0)"/>
<path d="" fill="#69C324" transform="translate(0,0)"/>
<path d="" fill="#1197DA" transform="translate(0,0)"/>
<path d="" fill="#7CBD49" transform="translate(0,0)"/>
<path d="" fill="#66B825" transform="translate(0,0)"/>
<path d="" fill="#77DA27" transform="translate(0,0)"/>
<path d="" fill="#80BA52" transform="translate(0,0)"/>
<path d="" fill="#89CC54" transform="translate(0,0)"/>
<path d="" fill="#85CA4E" transform="translate(0,0)"/>
<path d="" fill="#8FC165" transform="translate(0,0)"/>
<path d="" fill="#82CA48" transform="translate(0,0)"/>
<path d="" fill="#84C253" transform="translate(0,0)"/>
<path d="" fill="#85CF4C" transform="translate(0,0)"/>
<path d="" fill="#8ACC55" transform="translate(0,0)"/>
<path d="" fill="#81C64C" transform="translate(0,0)"/>
<path d="" fill="#88CD51" transform="translate(0,0)"/>
<path d="" fill="#8DC167" transform="translate(0,0)"/>
<path d="" fill="#88CE50" transform="translate(0,0)"/>
<path d="" fill="#89CC52" transform="translate(0,0)"/>
<path d="" fill="#82DC3B" transform="translate(0,0)"/>
<path d="" fill="#90D05D" transform="translate(0,0)"/>
<path d="" fill="#75B046" transform="translate(0,0)"/>
<path d="" fill="#89DA49" transform="translate(0,0)"/>
</svg>
